G75*
%MOIN*%
%OFA0B0*%
%FSLAX25Y25*%
%IPPOS*%
%LPD*%
%AMOC8*
5,1,8,0,0,1.08239X$1,22.5*
%
%ADD10C,0.07400*%
%ADD11R,0.06000X0.06000*%
%ADD12C,0.06000*%
%ADD13C,0.01000*%
%ADD14C,0.04000*%
D10*
X0523333Y0201500D03*
X0533333Y0201500D03*
X0543333Y0201500D03*
X0553333Y0201500D03*
X0563333Y0201500D03*
X0573333Y0201500D03*
X0583333Y0201500D03*
X0593333Y0201500D03*
X0603333Y0201500D03*
X0613333Y0201500D03*
X0628333Y0201500D03*
X0638333Y0201500D03*
X0648333Y0201500D03*
X0658333Y0201500D03*
X0668333Y0201500D03*
X0678333Y0201500D03*
X0688333Y0201500D03*
X0698333Y0201500D03*
X0698333Y0011500D03*
X0688333Y0011500D03*
X0678333Y0011500D03*
X0668333Y0011500D03*
X0658333Y0011500D03*
X0648333Y0011500D03*
X0628333Y0011500D03*
X0618333Y0011500D03*
X0608333Y0011500D03*
X0598333Y0011500D03*
X0588333Y0011500D03*
X0578333Y0011500D03*
X0568333Y0011500D03*
X0558333Y0011500D03*
D11*
X0580144Y0076972D03*
D12*
X0572270Y0076972D03*
X0564396Y0076972D03*
X0556522Y0076972D03*
X0548648Y0076972D03*
X0548648Y0136028D03*
X0556522Y0136028D03*
X0564396Y0136028D03*
X0572270Y0136028D03*
X0580144Y0136028D03*
X0595892Y0136028D03*
D13*
X0485433Y0200630D02*
X0485433Y0012370D01*
X0494203Y0003600D01*
X0706233Y0003600D01*
X0706233Y0012370D01*
X0707463Y0013600D01*
X0716233Y0022370D01*
X0716233Y0150630D01*
X0706233Y0160630D01*
X0706233Y0205630D01*
X0702463Y0209400D01*
X0494203Y0209400D01*
X0485433Y0200630D01*
X0485433Y0200047D02*
X0518090Y0200047D01*
X0517933Y0200426D02*
X0518755Y0198441D01*
X0520274Y0196922D01*
X0522259Y0196100D01*
X0524407Y0196100D01*
X0526392Y0196922D01*
X0527911Y0198441D01*
X0528333Y0199460D01*
X0528755Y0198441D01*
X0530274Y0196922D01*
X0532259Y0196100D01*
X0534407Y0196100D01*
X0536392Y0196922D01*
X0537911Y0198441D01*
X0538333Y0199460D01*
X0538755Y0198441D01*
X0540274Y0196922D01*
X0542259Y0196100D01*
X0544407Y0196100D01*
X0546392Y0196922D01*
X0547911Y0198441D01*
X0548333Y0199460D01*
X0548755Y0198441D01*
X0550274Y0196922D01*
X0552259Y0196100D01*
X0554407Y0196100D01*
X0556392Y0196922D01*
X0557911Y0198441D01*
X0558333Y0199460D01*
X0558755Y0198441D01*
X0560274Y0196922D01*
X0562259Y0196100D01*
X0564407Y0196100D01*
X0566392Y0196922D01*
X0567911Y0198441D01*
X0568333Y0199460D01*
X0568755Y0198441D01*
X0570274Y0196922D01*
X0572259Y0196100D01*
X0574407Y0196100D01*
X0576392Y0196922D01*
X0577911Y0198441D01*
X0578333Y0199460D01*
X0578755Y0198441D01*
X0580274Y0196922D01*
X0582259Y0196100D01*
X0584407Y0196100D01*
X0586392Y0196922D01*
X0587911Y0198441D01*
X0588333Y0199460D01*
X0588755Y0198441D01*
X0590274Y0196922D01*
X0591133Y0196566D01*
X0591133Y0190589D01*
X0592422Y0189300D01*
X0631133Y0150589D01*
X0631133Y0124533D01*
X0630197Y0123596D01*
X0629633Y0122236D01*
X0629633Y0120764D01*
X0630197Y0119404D01*
X0631237Y0118363D01*
X0632597Y0117800D01*
X0634069Y0117800D01*
X0635429Y0118363D01*
X0636470Y0119404D01*
X0637033Y0120764D01*
X0637033Y0122236D01*
X0636470Y0123596D01*
X0635533Y0124533D01*
X0635533Y0152411D01*
X0595533Y0192411D01*
X0595533Y0196566D01*
X0596392Y0196922D01*
X0597911Y0198441D01*
X0598333Y0199460D01*
X0598755Y0198441D01*
X0600274Y0196922D01*
X0602259Y0196100D01*
X0604407Y0196100D01*
X0606392Y0196922D01*
X0607911Y0198441D01*
X0608333Y0199460D01*
X0608755Y0198441D01*
X0610274Y0196922D01*
X0612259Y0196100D01*
X0614407Y0196100D01*
X0616392Y0196922D01*
X0617911Y0198441D01*
X0618733Y0200426D01*
X0618733Y0202574D01*
X0617911Y0204559D01*
X0616392Y0206078D01*
X0614407Y0206900D01*
X0612259Y0206900D01*
X0610274Y0206078D01*
X0608755Y0204559D01*
X0608333Y0203540D01*
X0607911Y0204559D01*
X0606392Y0206078D01*
X0604407Y0206900D01*
X0602259Y0206900D01*
X0600274Y0206078D01*
X0598755Y0204559D01*
X0598333Y0203540D01*
X0597911Y0204559D01*
X0596392Y0206078D01*
X0594407Y0206900D01*
X0592259Y0206900D01*
X0590274Y0206078D01*
X0588755Y0204559D01*
X0588333Y0203540D01*
X0587911Y0204559D01*
X0586392Y0206078D01*
X0584407Y0206900D01*
X0582259Y0206900D01*
X0580274Y0206078D01*
X0578755Y0204559D01*
X0578333Y0203540D01*
X0577911Y0204559D01*
X0576392Y0206078D01*
X0574407Y0206900D01*
X0572259Y0206900D01*
X0570274Y0206078D01*
X0568755Y0204559D01*
X0568333Y0203540D01*
X0567911Y0204559D01*
X0566392Y0206078D01*
X0564407Y0206900D01*
X0562259Y0206900D01*
X0560274Y0206078D01*
X0558755Y0204559D01*
X0558333Y0203540D01*
X0557911Y0204559D01*
X0556392Y0206078D01*
X0554407Y0206900D01*
X0552259Y0206900D01*
X0550274Y0206078D01*
X0548755Y0204559D01*
X0548333Y0203540D01*
X0547911Y0204559D01*
X0546392Y0206078D01*
X0544407Y0206900D01*
X0542259Y0206900D01*
X0540274Y0206078D01*
X0538755Y0204559D01*
X0538333Y0203540D01*
X0537911Y0204559D01*
X0536392Y0206078D01*
X0534407Y0206900D01*
X0532259Y0206900D01*
X0530274Y0206078D01*
X0528755Y0204559D01*
X0528333Y0203540D01*
X0527911Y0204559D01*
X0526392Y0206078D01*
X0524407Y0206900D01*
X0522259Y0206900D01*
X0520274Y0206078D01*
X0518755Y0204559D01*
X0517933Y0202574D01*
X0517933Y0200426D01*
X0517933Y0201046D02*
X0485849Y0201046D01*
X0486848Y0202044D02*
X0517933Y0202044D01*
X0518128Y0203043D02*
X0487846Y0203043D01*
X0488845Y0204041D02*
X0518541Y0204041D01*
X0519237Y0205040D02*
X0489843Y0205040D01*
X0490842Y0206039D02*
X0520235Y0206039D01*
X0526432Y0206039D02*
X0530235Y0206039D01*
X0529237Y0205040D02*
X0527430Y0205040D01*
X0528126Y0204041D02*
X0528541Y0204041D01*
X0528504Y0199049D02*
X0528163Y0199049D01*
X0527520Y0198050D02*
X0529146Y0198050D01*
X0530145Y0197052D02*
X0526522Y0197052D01*
X0520145Y0197052D02*
X0485433Y0197052D01*
X0485433Y0198050D02*
X0519146Y0198050D01*
X0518504Y0199049D02*
X0485433Y0199049D01*
X0485433Y0196053D02*
X0591133Y0196053D01*
X0591133Y0195055D02*
X0485433Y0195055D01*
X0485433Y0194056D02*
X0591133Y0194056D01*
X0591133Y0193058D02*
X0485433Y0193058D01*
X0485433Y0192059D02*
X0591133Y0192059D01*
X0591133Y0191061D02*
X0485433Y0191061D01*
X0485433Y0190062D02*
X0591660Y0190062D01*
X0592658Y0189064D02*
X0485433Y0189064D01*
X0485433Y0188065D02*
X0593657Y0188065D01*
X0594655Y0187067D02*
X0485433Y0187067D01*
X0485433Y0186068D02*
X0595654Y0186068D01*
X0596652Y0185070D02*
X0485433Y0185070D01*
X0485433Y0184071D02*
X0597651Y0184071D01*
X0598649Y0183073D02*
X0485433Y0183073D01*
X0485433Y0182074D02*
X0599648Y0182074D01*
X0600646Y0181076D02*
X0485433Y0181076D01*
X0485433Y0180077D02*
X0601645Y0180077D01*
X0602643Y0179079D02*
X0485433Y0179079D01*
X0485433Y0178080D02*
X0603642Y0178080D01*
X0604640Y0177082D02*
X0485433Y0177082D01*
X0485433Y0176083D02*
X0605639Y0176083D01*
X0606637Y0175085D02*
X0485433Y0175085D01*
X0485433Y0174086D02*
X0607636Y0174086D01*
X0608634Y0173088D02*
X0485433Y0173088D01*
X0485433Y0172089D02*
X0609633Y0172089D01*
X0610631Y0171091D02*
X0485433Y0171091D01*
X0485433Y0170092D02*
X0611630Y0170092D01*
X0612628Y0169094D02*
X0485433Y0169094D01*
X0485433Y0168095D02*
X0613627Y0168095D01*
X0614625Y0167097D02*
X0485433Y0167097D01*
X0485433Y0166098D02*
X0615624Y0166098D01*
X0616623Y0165100D02*
X0485433Y0165100D01*
X0485433Y0164101D02*
X0617621Y0164101D01*
X0618620Y0163103D02*
X0485433Y0163103D01*
X0485433Y0162104D02*
X0619618Y0162104D01*
X0620617Y0161105D02*
X0485433Y0161105D01*
X0485433Y0160107D02*
X0621615Y0160107D01*
X0622614Y0159108D02*
X0485433Y0159108D01*
X0485433Y0158110D02*
X0623612Y0158110D01*
X0624611Y0157111D02*
X0485433Y0157111D01*
X0485433Y0156113D02*
X0625609Y0156113D01*
X0626608Y0155114D02*
X0485433Y0155114D01*
X0485433Y0154116D02*
X0627606Y0154116D01*
X0628605Y0153117D02*
X0485433Y0153117D01*
X0485433Y0152119D02*
X0629603Y0152119D01*
X0630602Y0151120D02*
X0485433Y0151120D01*
X0485433Y0150122D02*
X0631133Y0150122D01*
X0631133Y0149123D02*
X0485433Y0149123D01*
X0485433Y0148125D02*
X0631133Y0148125D01*
X0631133Y0147126D02*
X0485433Y0147126D01*
X0485433Y0146128D02*
X0631133Y0146128D01*
X0631133Y0145129D02*
X0485433Y0145129D01*
X0485433Y0144131D02*
X0631133Y0144131D01*
X0631133Y0143132D02*
X0485433Y0143132D01*
X0485433Y0142134D02*
X0631133Y0142134D01*
X0631133Y0141135D02*
X0485433Y0141135D01*
X0485433Y0140137D02*
X0546287Y0140137D01*
X0545986Y0140012D02*
X0544664Y0138690D01*
X0543948Y0136962D01*
X0543948Y0135093D01*
X0544664Y0133365D01*
X0545986Y0132043D01*
X0547713Y0131328D01*
X0549583Y0131328D01*
X0551311Y0132043D01*
X0552633Y0133365D01*
X0552728Y0133595D01*
X0553090Y0133096D01*
X0553591Y0132595D01*
X0554164Y0132179D01*
X0554795Y0131857D01*
X0555469Y0131638D01*
X0556168Y0131528D01*
X0556235Y0131528D01*
X0556235Y0135740D01*
X0556810Y0135740D01*
X0556810Y0131528D01*
X0556876Y0131528D01*
X0557576Y0131638D01*
X0558250Y0131857D01*
X0558881Y0132179D01*
X0559454Y0132595D01*
X0559955Y0133096D01*
X0560317Y0133595D01*
X0560412Y0133365D01*
X0561734Y0132043D01*
X0563461Y0131328D01*
X0565331Y0131328D01*
X0567059Y0132043D01*
X0568333Y0133318D01*
X0569608Y0132043D01*
X0571335Y0131328D01*
X0573205Y0131328D01*
X0574933Y0132043D01*
X0576207Y0133318D01*
X0577482Y0132043D01*
X0579209Y0131328D01*
X0581079Y0131328D01*
X0582807Y0132043D01*
X0584129Y0133365D01*
X0584844Y0135093D01*
X0584844Y0136962D01*
X0584129Y0138690D01*
X0582807Y0140012D01*
X0581079Y0140728D01*
X0579209Y0140728D01*
X0577482Y0140012D01*
X0576207Y0138737D01*
X0574933Y0140012D01*
X0573205Y0140728D01*
X0571335Y0140728D01*
X0569608Y0140012D01*
X0568333Y0138737D01*
X0567059Y0140012D01*
X0565331Y0140728D01*
X0563461Y0140728D01*
X0561734Y0140012D01*
X0560412Y0138690D01*
X0560317Y0138461D01*
X0559955Y0138959D01*
X0559454Y0139460D01*
X0558881Y0139876D01*
X0558250Y0140198D01*
X0557576Y0140417D01*
X0556876Y0140528D01*
X0556810Y0140528D01*
X0556810Y0136315D01*
X0556235Y0136315D01*
X0556235Y0140528D01*
X0556168Y0140528D01*
X0555469Y0140417D01*
X0554795Y0140198D01*
X0554164Y0139876D01*
X0553591Y0139460D01*
X0553090Y0138959D01*
X0552728Y0138461D01*
X0552633Y0138690D01*
X0551311Y0140012D01*
X0549583Y0140728D01*
X0547713Y0140728D01*
X0545986Y0140012D01*
X0545112Y0139138D02*
X0485433Y0139138D01*
X0485433Y0138140D02*
X0544436Y0138140D01*
X0544022Y0137141D02*
X0485433Y0137141D01*
X0485433Y0136143D02*
X0543948Y0136143D01*
X0543948Y0135144D02*
X0485433Y0135144D01*
X0485433Y0134146D02*
X0544341Y0134146D01*
X0544882Y0133147D02*
X0485433Y0133147D01*
X0485433Y0132149D02*
X0545880Y0132149D01*
X0551416Y0132149D02*
X0554223Y0132149D01*
X0553053Y0133147D02*
X0552415Y0133147D01*
X0556235Y0133147D02*
X0556810Y0133147D01*
X0556810Y0132149D02*
X0556235Y0132149D01*
X0556235Y0134146D02*
X0556810Y0134146D01*
X0556810Y0135144D02*
X0556235Y0135144D01*
X0556235Y0137141D02*
X0556810Y0137141D01*
X0556810Y0138140D02*
X0556235Y0138140D01*
X0556235Y0139138D02*
X0556810Y0139138D01*
X0556810Y0140137D02*
X0556235Y0140137D01*
X0554675Y0140137D02*
X0551009Y0140137D01*
X0552184Y0139138D02*
X0553269Y0139138D01*
X0558370Y0140137D02*
X0562035Y0140137D01*
X0560860Y0139138D02*
X0559776Y0139138D01*
X0566758Y0140137D02*
X0569909Y0140137D01*
X0568734Y0139138D02*
X0567932Y0139138D01*
X0574632Y0140137D02*
X0577783Y0140137D01*
X0576608Y0139138D02*
X0575806Y0139138D01*
X0582506Y0140137D02*
X0593531Y0140137D01*
X0593230Y0140012D02*
X0591908Y0138690D01*
X0591192Y0136962D01*
X0591192Y0135093D01*
X0591908Y0133365D01*
X0593230Y0132043D01*
X0594957Y0131328D01*
X0596827Y0131328D01*
X0598555Y0132043D01*
X0599877Y0133365D01*
X0600592Y0135093D01*
X0600592Y0136962D01*
X0599877Y0138690D01*
X0598555Y0140012D01*
X0596827Y0140728D01*
X0594957Y0140728D01*
X0593230Y0140012D01*
X0592356Y0139138D02*
X0583680Y0139138D01*
X0584357Y0138140D02*
X0591680Y0138140D01*
X0591266Y0137141D02*
X0584770Y0137141D01*
X0584844Y0136143D02*
X0591192Y0136143D01*
X0591192Y0135144D02*
X0584844Y0135144D01*
X0584452Y0134146D02*
X0591585Y0134146D01*
X0592126Y0133147D02*
X0583911Y0133147D01*
X0582912Y0132149D02*
X0593124Y0132149D01*
X0598660Y0132149D02*
X0631133Y0132149D01*
X0631133Y0133147D02*
X0599659Y0133147D01*
X0600200Y0134146D02*
X0631133Y0134146D01*
X0631133Y0135144D02*
X0600592Y0135144D01*
X0600592Y0136143D02*
X0631133Y0136143D01*
X0631133Y0137141D02*
X0600518Y0137141D01*
X0600105Y0138140D02*
X0631133Y0138140D01*
X0631133Y0139138D02*
X0599428Y0139138D01*
X0598254Y0140137D02*
X0631133Y0140137D01*
X0635533Y0140137D02*
X0716233Y0140137D01*
X0716233Y0141135D02*
X0635533Y0141135D01*
X0635533Y0142134D02*
X0716233Y0142134D01*
X0716233Y0143132D02*
X0635533Y0143132D01*
X0635533Y0144131D02*
X0716233Y0144131D01*
X0716233Y0145129D02*
X0635533Y0145129D01*
X0635533Y0146128D02*
X0716233Y0146128D01*
X0716233Y0147126D02*
X0635533Y0147126D01*
X0635533Y0148125D02*
X0716233Y0148125D01*
X0716233Y0149123D02*
X0635533Y0149123D01*
X0635533Y0150122D02*
X0716233Y0150122D01*
X0715743Y0151120D02*
X0635533Y0151120D01*
X0635533Y0152119D02*
X0714745Y0152119D01*
X0713746Y0153117D02*
X0634827Y0153117D01*
X0633829Y0154116D02*
X0712748Y0154116D01*
X0711749Y0155114D02*
X0632830Y0155114D01*
X0631832Y0156113D02*
X0710751Y0156113D01*
X0709752Y0157111D02*
X0630833Y0157111D01*
X0629835Y0158110D02*
X0708754Y0158110D01*
X0707755Y0159108D02*
X0628836Y0159108D01*
X0627838Y0160107D02*
X0706756Y0160107D01*
X0706233Y0161105D02*
X0626839Y0161105D01*
X0625841Y0162104D02*
X0706233Y0162104D01*
X0706233Y0163103D02*
X0624842Y0163103D01*
X0623844Y0164101D02*
X0706233Y0164101D01*
X0706233Y0165100D02*
X0622845Y0165100D01*
X0621847Y0166098D02*
X0706233Y0166098D01*
X0706233Y0167097D02*
X0620848Y0167097D01*
X0619850Y0168095D02*
X0706233Y0168095D01*
X0706233Y0169094D02*
X0618851Y0169094D01*
X0617852Y0170092D02*
X0706233Y0170092D01*
X0706233Y0171091D02*
X0616854Y0171091D01*
X0615855Y0172089D02*
X0706233Y0172089D01*
X0706233Y0173088D02*
X0614857Y0173088D01*
X0613858Y0174086D02*
X0706233Y0174086D01*
X0706233Y0175085D02*
X0612860Y0175085D01*
X0611861Y0176083D02*
X0706233Y0176083D01*
X0706233Y0177082D02*
X0610863Y0177082D01*
X0609864Y0178080D02*
X0706233Y0178080D01*
X0706233Y0179079D02*
X0608866Y0179079D01*
X0607867Y0180077D02*
X0706233Y0180077D01*
X0706233Y0181076D02*
X0606869Y0181076D01*
X0605870Y0182074D02*
X0706233Y0182074D01*
X0706233Y0183073D02*
X0604872Y0183073D01*
X0603873Y0184071D02*
X0706233Y0184071D01*
X0706233Y0185070D02*
X0602875Y0185070D01*
X0601876Y0186068D02*
X0706233Y0186068D01*
X0706233Y0187067D02*
X0600878Y0187067D01*
X0599879Y0188065D02*
X0706233Y0188065D01*
X0706233Y0189064D02*
X0598881Y0189064D01*
X0597882Y0190062D02*
X0706233Y0190062D01*
X0706233Y0191061D02*
X0596884Y0191061D01*
X0595885Y0192059D02*
X0706233Y0192059D01*
X0706233Y0193058D02*
X0595533Y0193058D01*
X0595533Y0194056D02*
X0706233Y0194056D01*
X0706233Y0195055D02*
X0595533Y0195055D01*
X0595533Y0196053D02*
X0706233Y0196053D01*
X0706233Y0197052D02*
X0701522Y0197052D01*
X0701392Y0196922D02*
X0702911Y0198441D01*
X0703733Y0200426D01*
X0703733Y0202574D01*
X0702911Y0204559D01*
X0701392Y0206078D01*
X0699407Y0206900D01*
X0697259Y0206900D01*
X0695274Y0206078D01*
X0693755Y0204559D01*
X0693333Y0203540D01*
X0692911Y0204559D01*
X0691392Y0206078D01*
X0689407Y0206900D01*
X0687259Y0206900D01*
X0685274Y0206078D01*
X0683755Y0204559D01*
X0683333Y0203540D01*
X0682911Y0204559D01*
X0681392Y0206078D01*
X0679407Y0206900D01*
X0677259Y0206900D01*
X0675274Y0206078D01*
X0673755Y0204559D01*
X0673333Y0203540D01*
X0672911Y0204559D01*
X0671392Y0206078D01*
X0669407Y0206900D01*
X0667259Y0206900D01*
X0665274Y0206078D01*
X0663755Y0204559D01*
X0663333Y0203540D01*
X0662911Y0204559D01*
X0661392Y0206078D01*
X0659407Y0206900D01*
X0657259Y0206900D01*
X0655274Y0206078D01*
X0653755Y0204559D01*
X0653333Y0203540D01*
X0652911Y0204559D01*
X0651392Y0206078D01*
X0649407Y0206900D01*
X0647259Y0206900D01*
X0645274Y0206078D01*
X0643755Y0204559D01*
X0643333Y0203540D01*
X0642911Y0204559D01*
X0641392Y0206078D01*
X0639407Y0206900D01*
X0637259Y0206900D01*
X0635274Y0206078D01*
X0633755Y0204559D01*
X0633333Y0203540D01*
X0632911Y0204559D01*
X0631392Y0206078D01*
X0629407Y0206900D01*
X0627259Y0206900D01*
X0625274Y0206078D01*
X0623755Y0204559D01*
X0622933Y0202574D01*
X0622933Y0200426D01*
X0623755Y0198441D01*
X0625274Y0196922D01*
X0627259Y0196100D01*
X0629407Y0196100D01*
X0631392Y0196922D01*
X0632911Y0198441D01*
X0633333Y0199460D01*
X0633755Y0198441D01*
X0635274Y0196922D01*
X0637259Y0196100D01*
X0639407Y0196100D01*
X0641392Y0196922D01*
X0642911Y0198441D01*
X0643333Y0199460D01*
X0643755Y0198441D01*
X0645274Y0196922D01*
X0647259Y0196100D01*
X0649407Y0196100D01*
X0651392Y0196922D01*
X0652911Y0198441D01*
X0653333Y0199460D01*
X0653755Y0198441D01*
X0655274Y0196922D01*
X0657259Y0196100D01*
X0659407Y0196100D01*
X0661392Y0196922D01*
X0662911Y0198441D01*
X0663333Y0199460D01*
X0663755Y0198441D01*
X0665274Y0196922D01*
X0667259Y0196100D01*
X0669407Y0196100D01*
X0671392Y0196922D01*
X0672911Y0198441D01*
X0673333Y0199460D01*
X0673755Y0198441D01*
X0675274Y0196922D01*
X0677259Y0196100D01*
X0679407Y0196100D01*
X0681392Y0196922D01*
X0682911Y0198441D01*
X0683333Y0199460D01*
X0683755Y0198441D01*
X0685274Y0196922D01*
X0687259Y0196100D01*
X0689407Y0196100D01*
X0691392Y0196922D01*
X0692911Y0198441D01*
X0693333Y0199460D01*
X0693755Y0198441D01*
X0695274Y0196922D01*
X0697259Y0196100D01*
X0699407Y0196100D01*
X0701392Y0196922D01*
X0702520Y0198050D02*
X0706233Y0198050D01*
X0706233Y0199049D02*
X0703163Y0199049D01*
X0703577Y0200047D02*
X0706233Y0200047D01*
X0706233Y0201046D02*
X0703733Y0201046D01*
X0703733Y0202044D02*
X0706233Y0202044D01*
X0706233Y0203043D02*
X0703539Y0203043D01*
X0703126Y0204041D02*
X0706233Y0204041D01*
X0706233Y0205040D02*
X0702430Y0205040D01*
X0701432Y0206039D02*
X0705825Y0206039D01*
X0704826Y0207037D02*
X0491840Y0207037D01*
X0492839Y0208036D02*
X0703828Y0208036D01*
X0702829Y0209034D02*
X0493837Y0209034D01*
X0536432Y0206039D02*
X0540235Y0206039D01*
X0539237Y0205040D02*
X0537430Y0205040D01*
X0538126Y0204041D02*
X0538541Y0204041D01*
X0538504Y0199049D02*
X0538163Y0199049D01*
X0537520Y0198050D02*
X0539146Y0198050D01*
X0540145Y0197052D02*
X0536522Y0197052D01*
X0546522Y0197052D02*
X0550145Y0197052D01*
X0549146Y0198050D02*
X0547520Y0198050D01*
X0548163Y0199049D02*
X0548504Y0199049D01*
X0548541Y0204041D02*
X0548126Y0204041D01*
X0547430Y0205040D02*
X0549237Y0205040D01*
X0550235Y0206039D02*
X0546432Y0206039D01*
X0556432Y0206039D02*
X0560235Y0206039D01*
X0559237Y0205040D02*
X0557430Y0205040D01*
X0558126Y0204041D02*
X0558541Y0204041D01*
X0558504Y0199049D02*
X0558163Y0199049D01*
X0557520Y0198050D02*
X0559146Y0198050D01*
X0560145Y0197052D02*
X0556522Y0197052D01*
X0566522Y0197052D02*
X0570145Y0197052D01*
X0569146Y0198050D02*
X0567520Y0198050D01*
X0568163Y0199049D02*
X0568504Y0199049D01*
X0568541Y0204041D02*
X0568126Y0204041D01*
X0567430Y0205040D02*
X0569237Y0205040D01*
X0570235Y0206039D02*
X0566432Y0206039D01*
X0576432Y0206039D02*
X0580235Y0206039D01*
X0579237Y0205040D02*
X0577430Y0205040D01*
X0578126Y0204041D02*
X0578541Y0204041D01*
X0578504Y0199049D02*
X0578163Y0199049D01*
X0577520Y0198050D02*
X0579146Y0198050D01*
X0580145Y0197052D02*
X0576522Y0197052D01*
X0586522Y0197052D02*
X0590145Y0197052D01*
X0589146Y0198050D02*
X0587520Y0198050D01*
X0588163Y0199049D02*
X0588504Y0199049D01*
X0588541Y0204041D02*
X0588126Y0204041D01*
X0587430Y0205040D02*
X0589237Y0205040D01*
X0590235Y0206039D02*
X0586432Y0206039D01*
X0593333Y0201500D02*
X0593333Y0191500D01*
X0633333Y0151500D01*
X0633333Y0121500D01*
X0630761Y0124161D02*
X0485433Y0124161D01*
X0485433Y0125159D02*
X0631133Y0125159D01*
X0631133Y0126158D02*
X0485433Y0126158D01*
X0485433Y0127156D02*
X0631133Y0127156D01*
X0631133Y0128155D02*
X0485433Y0128155D01*
X0485433Y0129153D02*
X0631133Y0129153D01*
X0631133Y0130152D02*
X0485433Y0130152D01*
X0485433Y0131150D02*
X0631133Y0131150D01*
X0635533Y0131150D02*
X0716233Y0131150D01*
X0716233Y0130152D02*
X0635533Y0130152D01*
X0635533Y0129153D02*
X0716233Y0129153D01*
X0716233Y0128155D02*
X0635533Y0128155D01*
X0635533Y0127156D02*
X0716233Y0127156D01*
X0716233Y0126158D02*
X0635533Y0126158D01*
X0635533Y0125159D02*
X0716233Y0125159D01*
X0716233Y0124161D02*
X0635905Y0124161D01*
X0636650Y0123162D02*
X0716233Y0123162D01*
X0716233Y0122164D02*
X0637033Y0122164D01*
X0637033Y0121165D02*
X0716233Y0121165D01*
X0716233Y0120167D02*
X0636786Y0120167D01*
X0636234Y0119168D02*
X0716233Y0119168D01*
X0716233Y0118170D02*
X0634961Y0118170D01*
X0631705Y0118170D02*
X0485433Y0118170D01*
X0485433Y0119168D02*
X0630433Y0119168D01*
X0629881Y0120167D02*
X0485433Y0120167D01*
X0485433Y0121165D02*
X0629633Y0121165D01*
X0629633Y0122164D02*
X0485433Y0122164D01*
X0485433Y0123162D02*
X0630017Y0123162D01*
X0635533Y0132149D02*
X0716233Y0132149D01*
X0716233Y0133147D02*
X0635533Y0133147D01*
X0635533Y0134146D02*
X0716233Y0134146D01*
X0716233Y0135144D02*
X0635533Y0135144D01*
X0635533Y0136143D02*
X0716233Y0136143D01*
X0716233Y0137141D02*
X0635533Y0137141D01*
X0635533Y0138140D02*
X0716233Y0138140D01*
X0716233Y0139138D02*
X0635533Y0139138D01*
X0577376Y0132149D02*
X0575038Y0132149D01*
X0576037Y0133147D02*
X0576378Y0133147D01*
X0569502Y0132149D02*
X0567164Y0132149D01*
X0568163Y0133147D02*
X0568504Y0133147D01*
X0561628Y0132149D02*
X0558822Y0132149D01*
X0559992Y0133147D02*
X0560630Y0133147D01*
X0485433Y0117171D02*
X0716233Y0117171D01*
X0716233Y0116172D02*
X0485433Y0116172D01*
X0485433Y0115174D02*
X0716233Y0115174D01*
X0716233Y0114175D02*
X0485433Y0114175D01*
X0485433Y0113177D02*
X0716233Y0113177D01*
X0716233Y0112178D02*
X0485433Y0112178D01*
X0485433Y0111180D02*
X0716233Y0111180D01*
X0716233Y0110181D02*
X0485433Y0110181D01*
X0485433Y0109183D02*
X0716233Y0109183D01*
X0716233Y0108184D02*
X0485433Y0108184D01*
X0485433Y0107186D02*
X0716233Y0107186D01*
X0716233Y0106187D02*
X0485433Y0106187D01*
X0485433Y0105189D02*
X0716233Y0105189D01*
X0716233Y0104190D02*
X0485433Y0104190D01*
X0485433Y0103192D02*
X0716233Y0103192D01*
X0716233Y0102193D02*
X0485433Y0102193D01*
X0485433Y0101195D02*
X0716233Y0101195D01*
X0716233Y0100196D02*
X0485433Y0100196D01*
X0485433Y0099198D02*
X0716233Y0099198D01*
X0716233Y0098199D02*
X0485433Y0098199D01*
X0485433Y0097201D02*
X0716233Y0097201D01*
X0716233Y0096202D02*
X0485433Y0096202D01*
X0485433Y0095204D02*
X0716233Y0095204D01*
X0716233Y0094205D02*
X0485433Y0094205D01*
X0485433Y0093207D02*
X0716233Y0093207D01*
X0716233Y0092208D02*
X0485433Y0092208D01*
X0485433Y0091210D02*
X0716233Y0091210D01*
X0716233Y0090211D02*
X0485433Y0090211D01*
X0485433Y0089213D02*
X0716233Y0089213D01*
X0716233Y0088214D02*
X0485433Y0088214D01*
X0485433Y0087216D02*
X0716233Y0087216D01*
X0716233Y0086217D02*
X0485433Y0086217D01*
X0485433Y0085219D02*
X0716233Y0085219D01*
X0716233Y0084220D02*
X0485433Y0084220D01*
X0485433Y0083222D02*
X0716233Y0083222D01*
X0716233Y0082223D02*
X0485433Y0082223D01*
X0485433Y0081225D02*
X0546632Y0081225D01*
X0545986Y0080957D02*
X0544664Y0079635D01*
X0543948Y0077907D01*
X0543948Y0076038D01*
X0544664Y0074310D01*
X0545986Y0072988D01*
X0547713Y0072272D01*
X0549583Y0072272D01*
X0551311Y0072988D01*
X0552585Y0074263D01*
X0553860Y0072988D01*
X0555587Y0072272D01*
X0557457Y0072272D01*
X0559185Y0072988D01*
X0560459Y0074263D01*
X0561734Y0072988D01*
X0563461Y0072272D01*
X0565331Y0072272D01*
X0567059Y0072988D01*
X0568333Y0074263D01*
X0569608Y0072988D01*
X0571335Y0072272D01*
X0573205Y0072272D01*
X0574933Y0072988D01*
X0575660Y0073716D01*
X0575747Y0073393D01*
X0575944Y0073051D01*
X0576223Y0072772D01*
X0576565Y0072575D01*
X0576947Y0072472D01*
X0579857Y0072472D01*
X0579857Y0076685D01*
X0580432Y0076685D01*
X0580432Y0077260D01*
X0584644Y0077260D01*
X0584644Y0080170D01*
X0584542Y0080551D01*
X0584345Y0080893D01*
X0584065Y0081173D01*
X0583723Y0081370D01*
X0583342Y0081472D01*
X0580432Y0081472D01*
X0580432Y0077260D01*
X0579857Y0077260D01*
X0579857Y0081472D01*
X0576947Y0081472D01*
X0576565Y0081370D01*
X0576223Y0081173D01*
X0575944Y0080893D01*
X0575747Y0080551D01*
X0575660Y0080229D01*
X0574933Y0080957D01*
X0573205Y0081672D01*
X0571335Y0081672D01*
X0569608Y0080957D01*
X0568333Y0079682D01*
X0567059Y0080957D01*
X0565331Y0081672D01*
X0563461Y0081672D01*
X0561734Y0080957D01*
X0560459Y0079682D01*
X0559185Y0080957D01*
X0557457Y0081672D01*
X0555587Y0081672D01*
X0553860Y0080957D01*
X0552585Y0079682D01*
X0551311Y0080957D01*
X0549583Y0081672D01*
X0547713Y0081672D01*
X0545986Y0080957D01*
X0545255Y0080226D02*
X0485433Y0080226D01*
X0485433Y0079228D02*
X0544495Y0079228D01*
X0544082Y0078229D02*
X0485433Y0078229D01*
X0485433Y0077231D02*
X0543948Y0077231D01*
X0543948Y0076232D02*
X0485433Y0076232D01*
X0485433Y0075234D02*
X0544281Y0075234D01*
X0544739Y0074235D02*
X0485433Y0074235D01*
X0485433Y0073237D02*
X0545737Y0073237D01*
X0551559Y0073237D02*
X0553611Y0073237D01*
X0552613Y0074235D02*
X0552558Y0074235D01*
X0559433Y0073237D02*
X0561485Y0073237D01*
X0560487Y0074235D02*
X0560432Y0074235D01*
X0567307Y0073237D02*
X0569359Y0073237D01*
X0568361Y0074235D02*
X0568306Y0074235D01*
X0575181Y0073237D02*
X0575837Y0073237D01*
X0579857Y0073237D02*
X0580432Y0073237D01*
X0580432Y0072472D02*
X0583342Y0072472D01*
X0583723Y0072575D01*
X0584065Y0072772D01*
X0584345Y0073051D01*
X0584542Y0073393D01*
X0584644Y0073775D01*
X0584644Y0076685D01*
X0580432Y0076685D01*
X0580432Y0072472D01*
X0580432Y0074235D02*
X0579857Y0074235D01*
X0579857Y0075234D02*
X0580432Y0075234D01*
X0580432Y0076232D02*
X0579857Y0076232D01*
X0580432Y0077231D02*
X0716233Y0077231D01*
X0716233Y0078229D02*
X0584644Y0078229D01*
X0584644Y0079228D02*
X0716233Y0079228D01*
X0716233Y0080226D02*
X0584629Y0080226D01*
X0583976Y0081225D02*
X0716233Y0081225D01*
X0716233Y0076232D02*
X0584644Y0076232D01*
X0584644Y0075234D02*
X0716233Y0075234D01*
X0716233Y0074235D02*
X0679442Y0074235D01*
X0679047Y0074631D02*
X0677843Y0075129D01*
X0676540Y0075129D01*
X0675337Y0074631D01*
X0674415Y0073709D01*
X0673917Y0072506D01*
X0673917Y0071203D01*
X0674415Y0069999D01*
X0675337Y0069078D01*
X0676540Y0068580D01*
X0677843Y0068580D01*
X0679047Y0069078D01*
X0679968Y0069999D01*
X0680466Y0071203D01*
X0680466Y0072506D01*
X0679968Y0073709D01*
X0679047Y0074631D01*
X0680164Y0073237D02*
X0716233Y0073237D01*
X0716233Y0072238D02*
X0680466Y0072238D01*
X0680466Y0071239D02*
X0716233Y0071239D01*
X0716233Y0070241D02*
X0680068Y0070241D01*
X0679211Y0069242D02*
X0716233Y0069242D01*
X0716233Y0068244D02*
X0485433Y0068244D01*
X0485433Y0069242D02*
X0675172Y0069242D01*
X0674315Y0070241D02*
X0485433Y0070241D01*
X0485433Y0071239D02*
X0673917Y0071239D01*
X0673917Y0072238D02*
X0485433Y0072238D01*
X0485433Y0067245D02*
X0716233Y0067245D01*
X0716233Y0066247D02*
X0485433Y0066247D01*
X0485433Y0065248D02*
X0716233Y0065248D01*
X0716233Y0064250D02*
X0485433Y0064250D01*
X0485433Y0063251D02*
X0716233Y0063251D01*
X0716233Y0062253D02*
X0485433Y0062253D01*
X0485433Y0061254D02*
X0716233Y0061254D01*
X0716233Y0060256D02*
X0485433Y0060256D01*
X0485433Y0059257D02*
X0716233Y0059257D01*
X0716233Y0058259D02*
X0485433Y0058259D01*
X0485433Y0057260D02*
X0716233Y0057260D01*
X0716233Y0056262D02*
X0485433Y0056262D01*
X0485433Y0055263D02*
X0716233Y0055263D01*
X0716233Y0054265D02*
X0485433Y0054265D01*
X0485433Y0053266D02*
X0716233Y0053266D01*
X0716233Y0052268D02*
X0485433Y0052268D01*
X0485433Y0051269D02*
X0716233Y0051269D01*
X0716233Y0050271D02*
X0654981Y0050271D01*
X0654834Y0050418D02*
X0653630Y0050917D01*
X0652328Y0050917D01*
X0651124Y0050418D01*
X0650203Y0049497D01*
X0649704Y0048293D01*
X0649704Y0046990D01*
X0650203Y0045787D01*
X0651124Y0044865D01*
X0652328Y0044367D01*
X0653630Y0044367D01*
X0654834Y0044865D01*
X0655755Y0045787D01*
X0656254Y0046990D01*
X0656254Y0048293D01*
X0655755Y0049497D01*
X0654834Y0050418D01*
X0655848Y0049272D02*
X0716233Y0049272D01*
X0716233Y0048274D02*
X0656254Y0048274D01*
X0656254Y0047275D02*
X0716233Y0047275D01*
X0716233Y0046277D02*
X0655958Y0046277D01*
X0655247Y0045278D02*
X0716233Y0045278D01*
X0716233Y0044280D02*
X0485433Y0044280D01*
X0485433Y0045278D02*
X0650711Y0045278D01*
X0650000Y0046277D02*
X0485433Y0046277D01*
X0485433Y0047275D02*
X0649704Y0047275D01*
X0649704Y0048274D02*
X0485433Y0048274D01*
X0485433Y0049272D02*
X0650110Y0049272D01*
X0650977Y0050271D02*
X0485433Y0050271D01*
X0485433Y0043281D02*
X0716233Y0043281D01*
X0716233Y0042283D02*
X0485433Y0042283D01*
X0485433Y0041284D02*
X0716233Y0041284D01*
X0716233Y0040286D02*
X0485433Y0040286D01*
X0485433Y0039287D02*
X0716233Y0039287D01*
X0716233Y0038289D02*
X0485433Y0038289D01*
X0485433Y0037290D02*
X0716233Y0037290D01*
X0716233Y0036292D02*
X0485433Y0036292D01*
X0485433Y0035293D02*
X0716233Y0035293D01*
X0716233Y0034295D02*
X0485433Y0034295D01*
X0485433Y0033296D02*
X0716233Y0033296D01*
X0716233Y0032298D02*
X0485433Y0032298D01*
X0485433Y0031299D02*
X0716233Y0031299D01*
X0716233Y0030301D02*
X0485433Y0030301D01*
X0485433Y0029302D02*
X0716233Y0029302D01*
X0716233Y0028303D02*
X0485433Y0028303D01*
X0485433Y0027305D02*
X0716233Y0027305D01*
X0716233Y0026306D02*
X0485433Y0026306D01*
X0485433Y0025308D02*
X0716233Y0025308D01*
X0716233Y0024309D02*
X0485433Y0024309D01*
X0485433Y0023311D02*
X0716233Y0023311D01*
X0716176Y0022312D02*
X0485433Y0022312D01*
X0485433Y0021314D02*
X0715177Y0021314D01*
X0714179Y0020315D02*
X0485433Y0020315D01*
X0485433Y0019317D02*
X0713180Y0019317D01*
X0712182Y0018318D02*
X0485433Y0018318D01*
X0485433Y0017320D02*
X0711183Y0017320D01*
X0710185Y0016321D02*
X0700804Y0016321D01*
X0701392Y0016078D02*
X0699407Y0016900D01*
X0697259Y0016900D01*
X0695274Y0016078D01*
X0693755Y0014559D01*
X0693333Y0013540D01*
X0692911Y0014559D01*
X0691392Y0016078D01*
X0689407Y0016900D01*
X0687259Y0016900D01*
X0685274Y0016078D01*
X0683755Y0014559D01*
X0683333Y0013540D01*
X0682911Y0014559D01*
X0681392Y0016078D01*
X0679407Y0016900D01*
X0677259Y0016900D01*
X0675274Y0016078D01*
X0673755Y0014559D01*
X0673333Y0013540D01*
X0672911Y0014559D01*
X0671392Y0016078D01*
X0669407Y0016900D01*
X0667259Y0016900D01*
X0665274Y0016078D01*
X0663755Y0014559D01*
X0663333Y0013540D01*
X0662911Y0014559D01*
X0661392Y0016078D01*
X0659407Y0016900D01*
X0657259Y0016900D01*
X0655274Y0016078D01*
X0653755Y0014559D01*
X0653333Y0013540D01*
X0652911Y0014559D01*
X0651392Y0016078D01*
X0649407Y0016900D01*
X0647259Y0016900D01*
X0645274Y0016078D01*
X0643755Y0014559D01*
X0642933Y0012574D01*
X0642933Y0010426D01*
X0643755Y0008441D01*
X0645274Y0006922D01*
X0647259Y0006100D01*
X0649407Y0006100D01*
X0651392Y0006922D01*
X0652911Y0008441D01*
X0653333Y0009460D01*
X0653755Y0008441D01*
X0655274Y0006922D01*
X0657259Y0006100D01*
X0659407Y0006100D01*
X0661392Y0006922D01*
X0662911Y0008441D01*
X0663333Y0009460D01*
X0663755Y0008441D01*
X0665274Y0006922D01*
X0667259Y0006100D01*
X0669407Y0006100D01*
X0671392Y0006922D01*
X0672911Y0008441D01*
X0673333Y0009460D01*
X0673755Y0008441D01*
X0675274Y0006922D01*
X0677259Y0006100D01*
X0679407Y0006100D01*
X0681392Y0006922D01*
X0682911Y0008441D01*
X0683333Y0009460D01*
X0683755Y0008441D01*
X0685274Y0006922D01*
X0687259Y0006100D01*
X0689407Y0006100D01*
X0691392Y0006922D01*
X0692911Y0008441D01*
X0693333Y0009460D01*
X0693755Y0008441D01*
X0695274Y0006922D01*
X0697259Y0006100D01*
X0699407Y0006100D01*
X0701392Y0006922D01*
X0702911Y0008441D01*
X0703733Y0010426D01*
X0703733Y0012574D01*
X0702911Y0014559D01*
X0701392Y0016078D01*
X0702147Y0015323D02*
X0709186Y0015323D01*
X0708188Y0014324D02*
X0703008Y0014324D01*
X0703422Y0013326D02*
X0707189Y0013326D01*
X0706233Y0012327D02*
X0703733Y0012327D01*
X0703733Y0011329D02*
X0706233Y0011329D01*
X0706233Y0010330D02*
X0703694Y0010330D01*
X0703280Y0009332D02*
X0706233Y0009332D01*
X0706233Y0008333D02*
X0702803Y0008333D01*
X0701805Y0007335D02*
X0706233Y0007335D01*
X0706233Y0006336D02*
X0699978Y0006336D01*
X0696689Y0006336D02*
X0689978Y0006336D01*
X0691805Y0007335D02*
X0694862Y0007335D01*
X0693863Y0008333D02*
X0692803Y0008333D01*
X0693280Y0009332D02*
X0693387Y0009332D01*
X0693658Y0014324D02*
X0693008Y0014324D01*
X0692147Y0015323D02*
X0694519Y0015323D01*
X0695862Y0016321D02*
X0690804Y0016321D01*
X0685862Y0016321D02*
X0680804Y0016321D01*
X0682147Y0015323D02*
X0684519Y0015323D01*
X0683658Y0014324D02*
X0683008Y0014324D01*
X0683280Y0009332D02*
X0683387Y0009332D01*
X0683863Y0008333D02*
X0682803Y0008333D01*
X0681805Y0007335D02*
X0684862Y0007335D01*
X0686689Y0006336D02*
X0679978Y0006336D01*
X0676689Y0006336D02*
X0669978Y0006336D01*
X0671805Y0007335D02*
X0674862Y0007335D01*
X0673863Y0008333D02*
X0672803Y0008333D01*
X0673280Y0009332D02*
X0673387Y0009332D01*
X0673658Y0014324D02*
X0673008Y0014324D01*
X0672147Y0015323D02*
X0674519Y0015323D01*
X0675862Y0016321D02*
X0670804Y0016321D01*
X0665862Y0016321D02*
X0660804Y0016321D01*
X0662147Y0015323D02*
X0664519Y0015323D01*
X0663658Y0014324D02*
X0663008Y0014324D01*
X0663280Y0009332D02*
X0663387Y0009332D01*
X0663863Y0008333D02*
X0662803Y0008333D01*
X0661805Y0007335D02*
X0664862Y0007335D01*
X0666689Y0006336D02*
X0659978Y0006336D01*
X0656689Y0006336D02*
X0649978Y0006336D01*
X0651805Y0007335D02*
X0654862Y0007335D01*
X0653863Y0008333D02*
X0652803Y0008333D01*
X0653280Y0009332D02*
X0653387Y0009332D01*
X0653658Y0014324D02*
X0653008Y0014324D01*
X0652147Y0015323D02*
X0654519Y0015323D01*
X0655862Y0016321D02*
X0650804Y0016321D01*
X0645862Y0016321D02*
X0630804Y0016321D01*
X0631392Y0016078D02*
X0629407Y0016900D01*
X0627259Y0016900D01*
X0625274Y0016078D01*
X0623755Y0014559D01*
X0623333Y0013540D01*
X0622911Y0014559D01*
X0621392Y0016078D01*
X0619407Y0016900D01*
X0617259Y0016900D01*
X0615274Y0016078D01*
X0613755Y0014559D01*
X0613333Y0013540D01*
X0612911Y0014559D01*
X0611392Y0016078D01*
X0609407Y0016900D01*
X0607259Y0016900D01*
X0605274Y0016078D01*
X0603755Y0014559D01*
X0603333Y0013540D01*
X0602911Y0014559D01*
X0601392Y0016078D01*
X0599407Y0016900D01*
X0597259Y0016900D01*
X0595274Y0016078D01*
X0593755Y0014559D01*
X0593333Y0013540D01*
X0592911Y0014559D01*
X0591392Y0016078D01*
X0589407Y0016900D01*
X0587259Y0016900D01*
X0585274Y0016078D01*
X0583755Y0014559D01*
X0583333Y0013540D01*
X0582911Y0014559D01*
X0581392Y0016078D01*
X0579407Y0016900D01*
X0577259Y0016900D01*
X0575274Y0016078D01*
X0573755Y0014559D01*
X0573333Y0013540D01*
X0572911Y0014559D01*
X0571392Y0016078D01*
X0569407Y0016900D01*
X0567259Y0016900D01*
X0565274Y0016078D01*
X0563755Y0014559D01*
X0563333Y0013540D01*
X0562911Y0014559D01*
X0561392Y0016078D01*
X0559407Y0016900D01*
X0557259Y0016900D01*
X0555274Y0016078D01*
X0553755Y0014559D01*
X0552933Y0012574D01*
X0552933Y0010426D01*
X0553755Y0008441D01*
X0555274Y0006922D01*
X0557259Y0006100D01*
X0559407Y0006100D01*
X0561392Y0006922D01*
X0562911Y0008441D01*
X0563333Y0009460D01*
X0563755Y0008441D01*
X0565274Y0006922D01*
X0567259Y0006100D01*
X0569407Y0006100D01*
X0571392Y0006922D01*
X0572911Y0008441D01*
X0573333Y0009460D01*
X0573755Y0008441D01*
X0575274Y0006922D01*
X0577259Y0006100D01*
X0579407Y0006100D01*
X0581392Y0006922D01*
X0582911Y0008441D01*
X0583333Y0009460D01*
X0583755Y0008441D01*
X0585274Y0006922D01*
X0587259Y0006100D01*
X0589407Y0006100D01*
X0591392Y0006922D01*
X0592911Y0008441D01*
X0593333Y0009460D01*
X0593755Y0008441D01*
X0595274Y0006922D01*
X0597259Y0006100D01*
X0599407Y0006100D01*
X0601392Y0006922D01*
X0602911Y0008441D01*
X0603333Y0009460D01*
X0603755Y0008441D01*
X0605274Y0006922D01*
X0607259Y0006100D01*
X0609407Y0006100D01*
X0611392Y0006922D01*
X0612911Y0008441D01*
X0613333Y0009460D01*
X0613755Y0008441D01*
X0615274Y0006922D01*
X0617259Y0006100D01*
X0619407Y0006100D01*
X0621392Y0006922D01*
X0622911Y0008441D01*
X0623333Y0009460D01*
X0623755Y0008441D01*
X0625274Y0006922D01*
X0627259Y0006100D01*
X0629407Y0006100D01*
X0631392Y0006922D01*
X0632911Y0008441D01*
X0633733Y0010426D01*
X0633733Y0012574D01*
X0632911Y0014559D01*
X0631392Y0016078D01*
X0632147Y0015323D02*
X0644519Y0015323D01*
X0643658Y0014324D02*
X0633008Y0014324D01*
X0633422Y0013326D02*
X0643245Y0013326D01*
X0642933Y0012327D02*
X0633733Y0012327D01*
X0633733Y0011329D02*
X0642933Y0011329D01*
X0642973Y0010330D02*
X0633694Y0010330D01*
X0633280Y0009332D02*
X0643387Y0009332D01*
X0643863Y0008333D02*
X0632803Y0008333D01*
X0631805Y0007335D02*
X0644862Y0007335D01*
X0646689Y0006336D02*
X0629978Y0006336D01*
X0626689Y0006336D02*
X0619978Y0006336D01*
X0621805Y0007335D02*
X0624862Y0007335D01*
X0623863Y0008333D02*
X0622803Y0008333D01*
X0623280Y0009332D02*
X0623387Y0009332D01*
X0623658Y0014324D02*
X0623008Y0014324D01*
X0622147Y0015323D02*
X0624519Y0015323D01*
X0625862Y0016321D02*
X0620804Y0016321D01*
X0615862Y0016321D02*
X0610804Y0016321D01*
X0612147Y0015323D02*
X0614519Y0015323D01*
X0613658Y0014324D02*
X0613008Y0014324D01*
X0613280Y0009332D02*
X0613387Y0009332D01*
X0613863Y0008333D02*
X0612803Y0008333D01*
X0611805Y0007335D02*
X0614862Y0007335D01*
X0616689Y0006336D02*
X0609978Y0006336D01*
X0606689Y0006336D02*
X0599978Y0006336D01*
X0601805Y0007335D02*
X0604862Y0007335D01*
X0603863Y0008333D02*
X0602803Y0008333D01*
X0603280Y0009332D02*
X0603387Y0009332D01*
X0603658Y0014324D02*
X0603008Y0014324D01*
X0602147Y0015323D02*
X0604519Y0015323D01*
X0605862Y0016321D02*
X0600804Y0016321D01*
X0595862Y0016321D02*
X0590804Y0016321D01*
X0592147Y0015323D02*
X0594519Y0015323D01*
X0593658Y0014324D02*
X0593008Y0014324D01*
X0593280Y0009332D02*
X0593387Y0009332D01*
X0593863Y0008333D02*
X0592803Y0008333D01*
X0591805Y0007335D02*
X0594862Y0007335D01*
X0596689Y0006336D02*
X0589978Y0006336D01*
X0586689Y0006336D02*
X0579978Y0006336D01*
X0581805Y0007335D02*
X0584862Y0007335D01*
X0583863Y0008333D02*
X0582803Y0008333D01*
X0583280Y0009332D02*
X0583387Y0009332D01*
X0583658Y0014324D02*
X0583008Y0014324D01*
X0582147Y0015323D02*
X0584519Y0015323D01*
X0585862Y0016321D02*
X0580804Y0016321D01*
X0575862Y0016321D02*
X0570804Y0016321D01*
X0572147Y0015323D02*
X0574519Y0015323D01*
X0573658Y0014324D02*
X0573008Y0014324D01*
X0573280Y0009332D02*
X0573387Y0009332D01*
X0573863Y0008333D02*
X0572803Y0008333D01*
X0571805Y0007335D02*
X0574862Y0007335D01*
X0576689Y0006336D02*
X0569978Y0006336D01*
X0566689Y0006336D02*
X0559978Y0006336D01*
X0561805Y0007335D02*
X0564862Y0007335D01*
X0563863Y0008333D02*
X0562803Y0008333D01*
X0563280Y0009332D02*
X0563387Y0009332D01*
X0563658Y0014324D02*
X0563008Y0014324D01*
X0562147Y0015323D02*
X0564519Y0015323D01*
X0565862Y0016321D02*
X0560804Y0016321D01*
X0555862Y0016321D02*
X0485433Y0016321D01*
X0485433Y0015323D02*
X0554519Y0015323D01*
X0553658Y0014324D02*
X0485433Y0014324D01*
X0485433Y0013326D02*
X0553245Y0013326D01*
X0552933Y0012327D02*
X0485476Y0012327D01*
X0486474Y0011329D02*
X0552933Y0011329D01*
X0552973Y0010330D02*
X0487473Y0010330D01*
X0488471Y0009332D02*
X0553387Y0009332D01*
X0553863Y0008333D02*
X0489470Y0008333D01*
X0490468Y0007335D02*
X0554862Y0007335D01*
X0556689Y0006336D02*
X0491467Y0006336D01*
X0492465Y0005338D02*
X0706233Y0005338D01*
X0706233Y0004339D02*
X0493464Y0004339D01*
X0584451Y0073237D02*
X0674220Y0073237D01*
X0674941Y0074235D02*
X0584644Y0074235D01*
X0580432Y0078229D02*
X0579857Y0078229D01*
X0579857Y0079228D02*
X0580432Y0079228D01*
X0580432Y0080226D02*
X0579857Y0080226D01*
X0579857Y0081225D02*
X0580432Y0081225D01*
X0576313Y0081225D02*
X0574286Y0081225D01*
X0570254Y0081225D02*
X0566412Y0081225D01*
X0567789Y0080226D02*
X0568877Y0080226D01*
X0562380Y0081225D02*
X0558538Y0081225D01*
X0559915Y0080226D02*
X0561003Y0080226D01*
X0554506Y0081225D02*
X0550664Y0081225D01*
X0552041Y0080226D02*
X0553129Y0080226D01*
X0596522Y0197052D02*
X0600145Y0197052D01*
X0599146Y0198050D02*
X0597520Y0198050D01*
X0598163Y0199049D02*
X0598504Y0199049D01*
X0598541Y0204041D02*
X0598126Y0204041D01*
X0597430Y0205040D02*
X0599237Y0205040D01*
X0600235Y0206039D02*
X0596432Y0206039D01*
X0606432Y0206039D02*
X0610235Y0206039D01*
X0609237Y0205040D02*
X0607430Y0205040D01*
X0608126Y0204041D02*
X0608541Y0204041D01*
X0608504Y0199049D02*
X0608163Y0199049D01*
X0607520Y0198050D02*
X0609146Y0198050D01*
X0610145Y0197052D02*
X0606522Y0197052D01*
X0616522Y0197052D02*
X0625145Y0197052D01*
X0624146Y0198050D02*
X0617520Y0198050D01*
X0618163Y0199049D02*
X0623504Y0199049D01*
X0623090Y0200047D02*
X0618577Y0200047D01*
X0618733Y0201046D02*
X0622933Y0201046D01*
X0622933Y0202044D02*
X0618733Y0202044D01*
X0618539Y0203043D02*
X0623128Y0203043D01*
X0623541Y0204041D02*
X0618126Y0204041D01*
X0617430Y0205040D02*
X0624237Y0205040D01*
X0625235Y0206039D02*
X0616432Y0206039D01*
X0631432Y0206039D02*
X0635235Y0206039D01*
X0634237Y0205040D02*
X0632430Y0205040D01*
X0633126Y0204041D02*
X0633541Y0204041D01*
X0633504Y0199049D02*
X0633163Y0199049D01*
X0632520Y0198050D02*
X0634146Y0198050D01*
X0635145Y0197052D02*
X0631522Y0197052D01*
X0641522Y0197052D02*
X0645145Y0197052D01*
X0644146Y0198050D02*
X0642520Y0198050D01*
X0643163Y0199049D02*
X0643504Y0199049D01*
X0643541Y0204041D02*
X0643126Y0204041D01*
X0642430Y0205040D02*
X0644237Y0205040D01*
X0645235Y0206039D02*
X0641432Y0206039D01*
X0651432Y0206039D02*
X0655235Y0206039D01*
X0654237Y0205040D02*
X0652430Y0205040D01*
X0653126Y0204041D02*
X0653541Y0204041D01*
X0653504Y0199049D02*
X0653163Y0199049D01*
X0652520Y0198050D02*
X0654146Y0198050D01*
X0655145Y0197052D02*
X0651522Y0197052D01*
X0661522Y0197052D02*
X0665145Y0197052D01*
X0664146Y0198050D02*
X0662520Y0198050D01*
X0663163Y0199049D02*
X0663504Y0199049D01*
X0663541Y0204041D02*
X0663126Y0204041D01*
X0662430Y0205040D02*
X0664237Y0205040D01*
X0665235Y0206039D02*
X0661432Y0206039D01*
X0671432Y0206039D02*
X0675235Y0206039D01*
X0674237Y0205040D02*
X0672430Y0205040D01*
X0673126Y0204041D02*
X0673541Y0204041D01*
X0673504Y0199049D02*
X0673163Y0199049D01*
X0672520Y0198050D02*
X0674146Y0198050D01*
X0675145Y0197052D02*
X0671522Y0197052D01*
X0681522Y0197052D02*
X0685145Y0197052D01*
X0684146Y0198050D02*
X0682520Y0198050D01*
X0683163Y0199049D02*
X0683504Y0199049D01*
X0683541Y0204041D02*
X0683126Y0204041D01*
X0682430Y0205040D02*
X0684237Y0205040D01*
X0685235Y0206039D02*
X0681432Y0206039D01*
X0691432Y0206039D02*
X0695235Y0206039D01*
X0694237Y0205040D02*
X0692430Y0205040D01*
X0693126Y0204041D02*
X0693541Y0204041D01*
X0693504Y0199049D02*
X0693163Y0199049D01*
X0692520Y0198050D02*
X0694146Y0198050D01*
X0695145Y0197052D02*
X0691522Y0197052D01*
D14*
X0633333Y0121500D03*
M02*
