%
M48
M72
T01C0.02000
T02C0.03150
T03C0.04000
%
T01
X633333Y121500
T02
X595892Y136028
X580144Y136028
X572270Y136028
X564396Y136028
X556522Y136028
X548648Y136028
X548648Y76972
X556522Y76972
X564396Y76972
X572270Y76972
X580144Y76972
X652979Y47642
X677192Y71854
T03
X523333Y201500
X533333Y201500
X543333Y201500
X553333Y201500
X563333Y201500
X573333Y201500
X583333Y201500
X593333Y201500
X603333Y201500
X613333Y201500
X628333Y201500
X638333Y201500
X648333Y201500
X658333Y201500
X668333Y201500
X678333Y201500
X688333Y201500
X698333Y201500
X698333Y11500
X688333Y11500
X678333Y11500
X668333Y11500
X658333Y11500
X648333Y11500
X628333Y11500
X618333Y11500
X608333Y11500
X598333Y11500
X588333Y11500
X578333Y11500
X568333Y11500
X558333Y11500
M30
