G75*
%MOIN*%
%OFA0B0*%
%FSLAX25Y25*%
%IPPOS*%
%LPD*%
%AMOC8*
5,1,8,0,0,1.08239X$1,22.5*
%
%ADD10C,0.00800*%
%ADD11C,0.07400*%
%ADD12R,0.03150X0.03150*%
%ADD13R,0.03543X0.03150*%
%ADD14R,0.02756X0.03543*%
%ADD15R,0.12598X0.09843*%
%ADD16C,0.00000*%
%ADD17R,0.06000X0.06000*%
%ADD18C,0.06000*%
%ADD19C,0.01000*%
%ADD20C,0.04000*%
D10*
X0483333Y0011500D02*
X0483333Y0201500D01*
X0493333Y0211500D01*
X0703333Y0211500D01*
X0708333Y0206500D01*
X0708333Y0161500D01*
X0718333Y0151500D01*
X0718333Y0021500D01*
X0708333Y0011500D01*
X0708333Y0001500D01*
X0493333Y0001500D01*
X0483333Y0011500D01*
D11*
X0558333Y0011500D03*
X0568333Y0011500D03*
X0578333Y0011500D03*
X0588333Y0011500D03*
X0598333Y0011500D03*
X0608333Y0011500D03*
X0618333Y0011500D03*
X0628333Y0011500D03*
X0648333Y0011500D03*
X0658333Y0011500D03*
X0668333Y0011500D03*
X0678333Y0011500D03*
X0688333Y0011500D03*
X0698333Y0011500D03*
X0698333Y0201500D03*
X0688333Y0201500D03*
X0678333Y0201500D03*
X0668333Y0201500D03*
X0658333Y0201500D03*
X0648333Y0201500D03*
X0638333Y0201500D03*
X0628333Y0201500D03*
X0613333Y0201500D03*
X0603333Y0201500D03*
X0593333Y0201500D03*
X0583333Y0201500D03*
X0573333Y0201500D03*
X0563333Y0201500D03*
X0553333Y0201500D03*
X0543333Y0201500D03*
X0533333Y0201500D03*
X0523333Y0201500D03*
D12*
X0675381Y0111500D03*
X0681286Y0111500D03*
D13*
X0649396Y0090240D03*
X0657664Y0086500D03*
X0649396Y0082760D03*
D14*
X0670774Y0086500D03*
X0675892Y0086500D03*
X0655892Y0111500D03*
X0650774Y0111500D03*
D15*
X0652585Y0056500D03*
X0684081Y0056500D03*
D16*
X0675617Y0071854D02*
X0675619Y0071933D01*
X0675625Y0072012D01*
X0675635Y0072091D01*
X0675649Y0072169D01*
X0675666Y0072246D01*
X0675688Y0072322D01*
X0675713Y0072397D01*
X0675743Y0072470D01*
X0675775Y0072542D01*
X0675812Y0072613D01*
X0675852Y0072681D01*
X0675895Y0072747D01*
X0675941Y0072811D01*
X0675991Y0072873D01*
X0676044Y0072932D01*
X0676099Y0072988D01*
X0676158Y0073042D01*
X0676219Y0073092D01*
X0676282Y0073140D01*
X0676348Y0073184D01*
X0676416Y0073225D01*
X0676486Y0073262D01*
X0676557Y0073296D01*
X0676631Y0073326D01*
X0676705Y0073352D01*
X0676781Y0073374D01*
X0676858Y0073393D01*
X0676936Y0073408D01*
X0677014Y0073419D01*
X0677093Y0073426D01*
X0677172Y0073429D01*
X0677251Y0073428D01*
X0677330Y0073423D01*
X0677409Y0073414D01*
X0677487Y0073401D01*
X0677564Y0073384D01*
X0677641Y0073364D01*
X0677716Y0073339D01*
X0677790Y0073311D01*
X0677863Y0073279D01*
X0677933Y0073244D01*
X0678002Y0073205D01*
X0678069Y0073162D01*
X0678134Y0073116D01*
X0678196Y0073068D01*
X0678256Y0073016D01*
X0678313Y0072961D01*
X0678367Y0072903D01*
X0678418Y0072843D01*
X0678466Y0072780D01*
X0678511Y0072715D01*
X0678553Y0072647D01*
X0678591Y0072578D01*
X0678625Y0072507D01*
X0678656Y0072434D01*
X0678684Y0072359D01*
X0678707Y0072284D01*
X0678727Y0072207D01*
X0678743Y0072130D01*
X0678755Y0072051D01*
X0678763Y0071973D01*
X0678767Y0071894D01*
X0678767Y0071814D01*
X0678763Y0071735D01*
X0678755Y0071657D01*
X0678743Y0071578D01*
X0678727Y0071501D01*
X0678707Y0071424D01*
X0678684Y0071349D01*
X0678656Y0071274D01*
X0678625Y0071201D01*
X0678591Y0071130D01*
X0678553Y0071061D01*
X0678511Y0070993D01*
X0678466Y0070928D01*
X0678418Y0070865D01*
X0678367Y0070805D01*
X0678313Y0070747D01*
X0678256Y0070692D01*
X0678196Y0070640D01*
X0678134Y0070592D01*
X0678069Y0070546D01*
X0678002Y0070503D01*
X0677933Y0070464D01*
X0677863Y0070429D01*
X0677790Y0070397D01*
X0677716Y0070369D01*
X0677641Y0070344D01*
X0677564Y0070324D01*
X0677487Y0070307D01*
X0677409Y0070294D01*
X0677330Y0070285D01*
X0677251Y0070280D01*
X0677172Y0070279D01*
X0677093Y0070282D01*
X0677014Y0070289D01*
X0676936Y0070300D01*
X0676858Y0070315D01*
X0676781Y0070334D01*
X0676705Y0070356D01*
X0676631Y0070382D01*
X0676557Y0070412D01*
X0676486Y0070446D01*
X0676416Y0070483D01*
X0676348Y0070524D01*
X0676282Y0070568D01*
X0676219Y0070616D01*
X0676158Y0070666D01*
X0676099Y0070720D01*
X0676044Y0070776D01*
X0675991Y0070835D01*
X0675941Y0070897D01*
X0675895Y0070961D01*
X0675852Y0071027D01*
X0675812Y0071095D01*
X0675775Y0071166D01*
X0675743Y0071238D01*
X0675713Y0071311D01*
X0675688Y0071386D01*
X0675666Y0071462D01*
X0675649Y0071539D01*
X0675635Y0071617D01*
X0675625Y0071696D01*
X0675619Y0071775D01*
X0675617Y0071854D01*
X0651404Y0047642D02*
X0651406Y0047721D01*
X0651412Y0047800D01*
X0651422Y0047879D01*
X0651436Y0047957D01*
X0651453Y0048034D01*
X0651475Y0048110D01*
X0651500Y0048185D01*
X0651530Y0048258D01*
X0651562Y0048330D01*
X0651599Y0048401D01*
X0651639Y0048469D01*
X0651682Y0048535D01*
X0651728Y0048599D01*
X0651778Y0048661D01*
X0651831Y0048720D01*
X0651886Y0048776D01*
X0651945Y0048830D01*
X0652006Y0048880D01*
X0652069Y0048928D01*
X0652135Y0048972D01*
X0652203Y0049013D01*
X0652273Y0049050D01*
X0652344Y0049084D01*
X0652418Y0049114D01*
X0652492Y0049140D01*
X0652568Y0049162D01*
X0652645Y0049181D01*
X0652723Y0049196D01*
X0652801Y0049207D01*
X0652880Y0049214D01*
X0652959Y0049217D01*
X0653038Y0049216D01*
X0653117Y0049211D01*
X0653196Y0049202D01*
X0653274Y0049189D01*
X0653351Y0049172D01*
X0653428Y0049152D01*
X0653503Y0049127D01*
X0653577Y0049099D01*
X0653650Y0049067D01*
X0653720Y0049032D01*
X0653789Y0048993D01*
X0653856Y0048950D01*
X0653921Y0048904D01*
X0653983Y0048856D01*
X0654043Y0048804D01*
X0654100Y0048749D01*
X0654154Y0048691D01*
X0654205Y0048631D01*
X0654253Y0048568D01*
X0654298Y0048503D01*
X0654340Y0048435D01*
X0654378Y0048366D01*
X0654412Y0048295D01*
X0654443Y0048222D01*
X0654471Y0048147D01*
X0654494Y0048072D01*
X0654514Y0047995D01*
X0654530Y0047918D01*
X0654542Y0047839D01*
X0654550Y0047761D01*
X0654554Y0047682D01*
X0654554Y0047602D01*
X0654550Y0047523D01*
X0654542Y0047445D01*
X0654530Y0047366D01*
X0654514Y0047289D01*
X0654494Y0047212D01*
X0654471Y0047137D01*
X0654443Y0047062D01*
X0654412Y0046989D01*
X0654378Y0046918D01*
X0654340Y0046849D01*
X0654298Y0046781D01*
X0654253Y0046716D01*
X0654205Y0046653D01*
X0654154Y0046593D01*
X0654100Y0046535D01*
X0654043Y0046480D01*
X0653983Y0046428D01*
X0653921Y0046380D01*
X0653856Y0046334D01*
X0653789Y0046291D01*
X0653720Y0046252D01*
X0653650Y0046217D01*
X0653577Y0046185D01*
X0653503Y0046157D01*
X0653428Y0046132D01*
X0653351Y0046112D01*
X0653274Y0046095D01*
X0653196Y0046082D01*
X0653117Y0046073D01*
X0653038Y0046068D01*
X0652959Y0046067D01*
X0652880Y0046070D01*
X0652801Y0046077D01*
X0652723Y0046088D01*
X0652645Y0046103D01*
X0652568Y0046122D01*
X0652492Y0046144D01*
X0652418Y0046170D01*
X0652344Y0046200D01*
X0652273Y0046234D01*
X0652203Y0046271D01*
X0652135Y0046312D01*
X0652069Y0046356D01*
X0652006Y0046404D01*
X0651945Y0046454D01*
X0651886Y0046508D01*
X0651831Y0046564D01*
X0651778Y0046623D01*
X0651728Y0046685D01*
X0651682Y0046749D01*
X0651639Y0046815D01*
X0651599Y0046883D01*
X0651562Y0046954D01*
X0651530Y0047026D01*
X0651500Y0047099D01*
X0651475Y0047174D01*
X0651453Y0047250D01*
X0651436Y0047327D01*
X0651422Y0047405D01*
X0651412Y0047484D01*
X0651406Y0047563D01*
X0651404Y0047642D01*
D17*
X0580144Y0076972D03*
D18*
X0572270Y0076972D03*
X0564396Y0076972D03*
X0556522Y0076972D03*
X0548648Y0076972D03*
X0548648Y0136028D03*
X0556522Y0136028D03*
X0564396Y0136028D03*
X0572270Y0136028D03*
X0580144Y0136028D03*
X0595892Y0136028D03*
D19*
X0668806Y0136028D01*
X0683333Y0121500D01*
X0683333Y0113547D01*
X0681286Y0111500D01*
X0681286Y0108547D01*
X0683333Y0106500D01*
X0683333Y0057248D01*
X0684081Y0056500D01*
X0685533Y0063121D02*
X0685533Y0107411D01*
X0684245Y0108700D01*
X0684142Y0108802D01*
X0684561Y0109221D01*
X0684561Y0111664D01*
X0685533Y0112636D01*
X0685533Y0122411D01*
X0684245Y0123700D01*
X0669717Y0138228D01*
X0600068Y0138228D01*
X0599877Y0138690D01*
X0598555Y0140012D01*
X0596827Y0140728D01*
X0594957Y0140728D01*
X0593230Y0140012D01*
X0591908Y0138690D01*
X0591192Y0136962D01*
X0591192Y0135093D01*
X0591908Y0133365D01*
X0593230Y0132043D01*
X0594957Y0131328D01*
X0596827Y0131328D01*
X0598555Y0132043D01*
X0599877Y0133365D01*
X0600068Y0133828D01*
X0667894Y0133828D01*
X0681133Y0120589D01*
X0681133Y0114775D01*
X0679007Y0114775D01*
X0678333Y0114101D01*
X0677660Y0114775D01*
X0673102Y0114775D01*
X0672106Y0113779D01*
X0672106Y0109221D01*
X0673102Y0108225D01*
X0673181Y0108225D01*
X0673181Y0089647D01*
X0672856Y0089972D01*
X0668692Y0089972D01*
X0667696Y0088976D01*
X0667696Y0088700D01*
X0661136Y0088700D01*
X0661136Y0088779D01*
X0660140Y0089775D01*
X0655188Y0089775D01*
X0654192Y0088779D01*
X0654192Y0084221D01*
X0655188Y0083225D01*
X0655464Y0083225D01*
X0655464Y0063121D01*
X0645582Y0063121D01*
X0644586Y0062125D01*
X0644586Y0050875D01*
X0645582Y0049879D01*
X0650585Y0049879D01*
X0650203Y0049497D01*
X0649704Y0048293D01*
X0649704Y0046990D01*
X0650203Y0045787D01*
X0651124Y0044865D01*
X0652328Y0044367D01*
X0653630Y0044367D01*
X0654834Y0044865D01*
X0655755Y0045787D01*
X0656254Y0046990D01*
X0656254Y0048293D01*
X0655755Y0049497D01*
X0655373Y0049879D01*
X0659589Y0049879D01*
X0660584Y0050875D01*
X0660584Y0062125D01*
X0659864Y0062846D01*
X0659864Y0083225D01*
X0660140Y0083225D01*
X0661136Y0084221D01*
X0661136Y0084300D01*
X0667696Y0084300D01*
X0667696Y0084024D01*
X0668692Y0083028D01*
X0672856Y0083028D01*
X0673333Y0083505D01*
X0673810Y0083028D01*
X0677974Y0083028D01*
X0678970Y0084024D01*
X0678970Y0088976D01*
X0677974Y0089972D01*
X0677581Y0089972D01*
X0677581Y0108225D01*
X0677660Y0108225D01*
X0678333Y0108899D01*
X0679007Y0108225D01*
X0679086Y0108225D01*
X0679086Y0107636D01*
X0681133Y0105589D01*
X0681133Y0063121D01*
X0677078Y0063121D01*
X0676082Y0062125D01*
X0676082Y0050875D01*
X0677078Y0049879D01*
X0691085Y0049879D01*
X0692081Y0050875D01*
X0692081Y0062125D01*
X0691085Y0063121D01*
X0685533Y0063121D01*
X0685533Y0063251D02*
X0716233Y0063251D01*
X0716233Y0062253D02*
X0691953Y0062253D01*
X0692081Y0061254D02*
X0716233Y0061254D01*
X0716233Y0060256D02*
X0692081Y0060256D01*
X0692081Y0059257D02*
X0716233Y0059257D01*
X0716233Y0058259D02*
X0692081Y0058259D01*
X0692081Y0057260D02*
X0716233Y0057260D01*
X0716233Y0056262D02*
X0692081Y0056262D01*
X0692081Y0055263D02*
X0716233Y0055263D01*
X0716233Y0054265D02*
X0692081Y0054265D01*
X0692081Y0053266D02*
X0716233Y0053266D01*
X0716233Y0052268D02*
X0692081Y0052268D01*
X0692081Y0051269D02*
X0716233Y0051269D01*
X0716233Y0050271D02*
X0691477Y0050271D01*
X0676686Y0050271D02*
X0659981Y0050271D01*
X0660584Y0051269D02*
X0676082Y0051269D01*
X0676082Y0052268D02*
X0660584Y0052268D01*
X0660584Y0053266D02*
X0676082Y0053266D01*
X0676082Y0054265D02*
X0660584Y0054265D01*
X0660584Y0055263D02*
X0676082Y0055263D01*
X0676082Y0056262D02*
X0660584Y0056262D01*
X0660584Y0057260D02*
X0676082Y0057260D01*
X0676082Y0058259D02*
X0660584Y0058259D01*
X0660584Y0059257D02*
X0676082Y0059257D01*
X0676082Y0060256D02*
X0660584Y0060256D01*
X0660584Y0061254D02*
X0676082Y0061254D01*
X0676210Y0062253D02*
X0660457Y0062253D01*
X0659864Y0063251D02*
X0681133Y0063251D01*
X0681133Y0064250D02*
X0659864Y0064250D01*
X0659864Y0065248D02*
X0681133Y0065248D01*
X0681133Y0066247D02*
X0659864Y0066247D01*
X0659864Y0067245D02*
X0681133Y0067245D01*
X0681133Y0068244D02*
X0659864Y0068244D01*
X0659864Y0069242D02*
X0675172Y0069242D01*
X0675337Y0069078D02*
X0676540Y0068580D01*
X0677843Y0068580D01*
X0679047Y0069078D01*
X0679968Y0069999D01*
X0680466Y0071203D01*
X0680466Y0072506D01*
X0679968Y0073709D01*
X0679047Y0074631D01*
X0677843Y0075129D01*
X0676540Y0075129D01*
X0675337Y0074631D01*
X0674415Y0073709D01*
X0673917Y0072506D01*
X0673917Y0071203D01*
X0674415Y0069999D01*
X0675337Y0069078D01*
X0674315Y0070241D02*
X0659864Y0070241D01*
X0659864Y0071239D02*
X0673917Y0071239D01*
X0673917Y0072238D02*
X0659864Y0072238D01*
X0659864Y0073237D02*
X0674220Y0073237D01*
X0674941Y0074235D02*
X0659864Y0074235D01*
X0659864Y0075234D02*
X0681133Y0075234D01*
X0681133Y0076232D02*
X0659864Y0076232D01*
X0659864Y0077231D02*
X0681133Y0077231D01*
X0681133Y0078229D02*
X0659864Y0078229D01*
X0659864Y0079228D02*
X0681133Y0079228D01*
X0681133Y0080226D02*
X0659864Y0080226D01*
X0659864Y0081225D02*
X0681133Y0081225D01*
X0681133Y0082223D02*
X0659864Y0082223D01*
X0659864Y0083222D02*
X0668499Y0083222D01*
X0667696Y0084220D02*
X0661135Y0084220D01*
X0657664Y0086500D02*
X0657664Y0061579D01*
X0652585Y0056500D01*
X0655464Y0063251D02*
X0485433Y0063251D01*
X0485433Y0062253D02*
X0644714Y0062253D01*
X0644586Y0061254D02*
X0485433Y0061254D01*
X0485433Y0060256D02*
X0644586Y0060256D01*
X0644586Y0059257D02*
X0485433Y0059257D01*
X0485433Y0058259D02*
X0644586Y0058259D01*
X0644586Y0057260D02*
X0485433Y0057260D01*
X0485433Y0056262D02*
X0644586Y0056262D01*
X0644586Y0055263D02*
X0485433Y0055263D01*
X0485433Y0054265D02*
X0644586Y0054265D01*
X0644586Y0053266D02*
X0485433Y0053266D01*
X0485433Y0052268D02*
X0644586Y0052268D01*
X0644586Y0051269D02*
X0485433Y0051269D01*
X0485433Y0050271D02*
X0645190Y0050271D01*
X0649704Y0048274D02*
X0485433Y0048274D01*
X0485433Y0049272D02*
X0650110Y0049272D01*
X0649704Y0047275D02*
X0485433Y0047275D01*
X0485433Y0046277D02*
X0650000Y0046277D01*
X0650711Y0045278D02*
X0485433Y0045278D01*
X0485433Y0044280D02*
X0716233Y0044280D01*
X0716233Y0045278D02*
X0655247Y0045278D01*
X0655958Y0046277D02*
X0716233Y0046277D01*
X0716233Y0047275D02*
X0656254Y0047275D01*
X0656254Y0048274D02*
X0716233Y0048274D01*
X0716233Y0049272D02*
X0655848Y0049272D01*
X0655464Y0064250D02*
X0485433Y0064250D01*
X0485433Y0065248D02*
X0655464Y0065248D01*
X0655464Y0066247D02*
X0485433Y0066247D01*
X0485433Y0067245D02*
X0655464Y0067245D01*
X0655464Y0068244D02*
X0485433Y0068244D01*
X0485433Y0069242D02*
X0655464Y0069242D01*
X0655464Y0070241D02*
X0485433Y0070241D01*
X0485433Y0071239D02*
X0655464Y0071239D01*
X0655464Y0072238D02*
X0485433Y0072238D01*
X0485433Y0073237D02*
X0545737Y0073237D01*
X0545986Y0072988D02*
X0547713Y0072272D01*
X0549583Y0072272D01*
X0551311Y0072988D01*
X0552585Y0074263D01*
X0553860Y0072988D01*
X0555587Y0072272D01*
X0557457Y0072272D01*
X0559185Y0072988D01*
X0560459Y0074263D01*
X0561734Y0072988D01*
X0563461Y0072272D01*
X0565331Y0072272D01*
X0567059Y0072988D01*
X0568333Y0074263D01*
X0569608Y0072988D01*
X0571335Y0072272D01*
X0573205Y0072272D01*
X0574933Y0072988D01*
X0575660Y0073716D01*
X0575747Y0073393D01*
X0575944Y0073051D01*
X0576223Y0072772D01*
X0576565Y0072575D01*
X0576947Y0072472D01*
X0579857Y0072472D01*
X0579857Y0076685D01*
X0580432Y0076685D01*
X0580432Y0077260D01*
X0584644Y0077260D01*
X0584644Y0080170D01*
X0584542Y0080551D01*
X0584345Y0080893D01*
X0584065Y0081173D01*
X0583723Y0081370D01*
X0583342Y0081472D01*
X0580432Y0081472D01*
X0580432Y0077260D01*
X0579857Y0077260D01*
X0579857Y0081472D01*
X0576947Y0081472D01*
X0576565Y0081370D01*
X0576223Y0081173D01*
X0575944Y0080893D01*
X0575747Y0080551D01*
X0575660Y0080229D01*
X0574933Y0080957D01*
X0573205Y0081672D01*
X0571335Y0081672D01*
X0571291Y0081654D01*
X0540533Y0112411D01*
X0540533Y0160589D01*
X0564245Y0184300D01*
X0565533Y0185589D01*
X0565533Y0196566D01*
X0566392Y0196922D01*
X0567911Y0198441D01*
X0568333Y0199460D01*
X0568755Y0198441D01*
X0570274Y0196922D01*
X0572259Y0196100D01*
X0574407Y0196100D01*
X0576392Y0196922D01*
X0577911Y0198441D01*
X0578333Y0199460D01*
X0578755Y0198441D01*
X0580274Y0196922D01*
X0582259Y0196100D01*
X0584407Y0196100D01*
X0586392Y0196922D01*
X0587911Y0198441D01*
X0588333Y0199460D01*
X0588755Y0198441D01*
X0590274Y0196922D01*
X0592259Y0196100D01*
X0594407Y0196100D01*
X0596392Y0196922D01*
X0597911Y0198441D01*
X0598333Y0199460D01*
X0598755Y0198441D01*
X0600274Y0196922D01*
X0602259Y0196100D01*
X0604407Y0196100D01*
X0606392Y0196922D01*
X0607911Y0198441D01*
X0608333Y0199460D01*
X0608755Y0198441D01*
X0610274Y0196922D01*
X0612259Y0196100D01*
X0614407Y0196100D01*
X0616392Y0196922D01*
X0617911Y0198441D01*
X0618733Y0200426D01*
X0618733Y0202574D01*
X0617911Y0204559D01*
X0616392Y0206078D01*
X0614407Y0206900D01*
X0612259Y0206900D01*
X0610274Y0206078D01*
X0608755Y0204559D01*
X0608333Y0203540D01*
X0607911Y0204559D01*
X0606392Y0206078D01*
X0604407Y0206900D01*
X0602259Y0206900D01*
X0600274Y0206078D01*
X0598755Y0204559D01*
X0598333Y0203540D01*
X0597911Y0204559D01*
X0596392Y0206078D01*
X0594407Y0206900D01*
X0592259Y0206900D01*
X0590274Y0206078D01*
X0588755Y0204559D01*
X0588333Y0203540D01*
X0587911Y0204559D01*
X0586392Y0206078D01*
X0584407Y0206900D01*
X0582259Y0206900D01*
X0580274Y0206078D01*
X0578755Y0204559D01*
X0578333Y0203540D01*
X0577911Y0204559D01*
X0576392Y0206078D01*
X0574407Y0206900D01*
X0572259Y0206900D01*
X0570274Y0206078D01*
X0568755Y0204559D01*
X0568333Y0203540D01*
X0567911Y0204559D01*
X0566392Y0206078D01*
X0564407Y0206900D01*
X0562259Y0206900D01*
X0560274Y0206078D01*
X0558755Y0204559D01*
X0558333Y0203540D01*
X0557911Y0204559D01*
X0556392Y0206078D01*
X0554407Y0206900D01*
X0552259Y0206900D01*
X0550274Y0206078D01*
X0548755Y0204559D01*
X0548333Y0203540D01*
X0547911Y0204559D01*
X0546392Y0206078D01*
X0544407Y0206900D01*
X0542259Y0206900D01*
X0540274Y0206078D01*
X0538755Y0204559D01*
X0538333Y0203540D01*
X0537911Y0204559D01*
X0536392Y0206078D01*
X0534407Y0206900D01*
X0532259Y0206900D01*
X0530274Y0206078D01*
X0528755Y0204559D01*
X0528333Y0203540D01*
X0527911Y0204559D01*
X0526392Y0206078D01*
X0524407Y0206900D01*
X0522259Y0206900D01*
X0520274Y0206078D01*
X0518755Y0204559D01*
X0517933Y0202574D01*
X0517933Y0200426D01*
X0518755Y0198441D01*
X0520274Y0196922D01*
X0522259Y0196100D01*
X0524407Y0196100D01*
X0526392Y0196922D01*
X0527911Y0198441D01*
X0528333Y0199460D01*
X0528755Y0198441D01*
X0530274Y0196922D01*
X0532259Y0196100D01*
X0534407Y0196100D01*
X0536392Y0196922D01*
X0537911Y0198441D01*
X0538333Y0199460D01*
X0538755Y0198441D01*
X0540274Y0196922D01*
X0542259Y0196100D01*
X0544407Y0196100D01*
X0546392Y0196922D01*
X0547911Y0198441D01*
X0548333Y0199460D01*
X0548755Y0198441D01*
X0550274Y0196922D01*
X0552259Y0196100D01*
X0554407Y0196100D01*
X0556392Y0196922D01*
X0557911Y0198441D01*
X0558333Y0199460D01*
X0558755Y0198441D01*
X0560274Y0196922D01*
X0561133Y0196566D01*
X0561133Y0187411D01*
X0536133Y0162411D01*
X0536133Y0110589D01*
X0537422Y0109300D01*
X0565050Y0081672D01*
X0563461Y0081672D01*
X0561734Y0080957D01*
X0560459Y0079682D01*
X0559185Y0080957D01*
X0557457Y0081672D01*
X0555587Y0081672D01*
X0553860Y0080957D01*
X0552585Y0079682D01*
X0551311Y0080957D01*
X0549583Y0081672D01*
X0547713Y0081672D01*
X0545986Y0080957D01*
X0544664Y0079635D01*
X0543948Y0077907D01*
X0543948Y0076038D01*
X0544664Y0074310D01*
X0545986Y0072988D01*
X0544739Y0074235D02*
X0485433Y0074235D01*
X0485433Y0075234D02*
X0544281Y0075234D01*
X0543948Y0076232D02*
X0485433Y0076232D01*
X0485433Y0077231D02*
X0543948Y0077231D01*
X0544082Y0078229D02*
X0485433Y0078229D01*
X0485433Y0079228D02*
X0544495Y0079228D01*
X0545255Y0080226D02*
X0485433Y0080226D01*
X0485433Y0081225D02*
X0546632Y0081225D01*
X0550664Y0081225D02*
X0554506Y0081225D01*
X0553129Y0080226D02*
X0552041Y0080226D01*
X0558538Y0081225D02*
X0562380Y0081225D01*
X0561003Y0080226D02*
X0559915Y0080226D01*
X0563500Y0083222D02*
X0485433Y0083222D01*
X0485433Y0084220D02*
X0562502Y0084220D01*
X0561503Y0085219D02*
X0485433Y0085219D01*
X0485433Y0086217D02*
X0560505Y0086217D01*
X0559506Y0087216D02*
X0485433Y0087216D01*
X0485433Y0088214D02*
X0558508Y0088214D01*
X0557509Y0089213D02*
X0485433Y0089213D01*
X0485433Y0090211D02*
X0556511Y0090211D01*
X0555512Y0091210D02*
X0485433Y0091210D01*
X0485433Y0092208D02*
X0554514Y0092208D01*
X0553515Y0093207D02*
X0485433Y0093207D01*
X0485433Y0094205D02*
X0552517Y0094205D01*
X0551518Y0095204D02*
X0485433Y0095204D01*
X0485433Y0096202D02*
X0550520Y0096202D01*
X0549521Y0097201D02*
X0485433Y0097201D01*
X0485433Y0098199D02*
X0548523Y0098199D01*
X0547524Y0099198D02*
X0485433Y0099198D01*
X0485433Y0100196D02*
X0546526Y0100196D01*
X0545527Y0101195D02*
X0485433Y0101195D01*
X0485433Y0102193D02*
X0544529Y0102193D01*
X0543530Y0103192D02*
X0485433Y0103192D01*
X0485433Y0104190D02*
X0542532Y0104190D01*
X0541533Y0105189D02*
X0485433Y0105189D01*
X0485433Y0106187D02*
X0540535Y0106187D01*
X0539536Y0107186D02*
X0485433Y0107186D01*
X0485433Y0108184D02*
X0538538Y0108184D01*
X0537539Y0109183D02*
X0485433Y0109183D01*
X0485433Y0110181D02*
X0536541Y0110181D01*
X0536133Y0111180D02*
X0485433Y0111180D01*
X0485433Y0112178D02*
X0536133Y0112178D01*
X0536133Y0113177D02*
X0485433Y0113177D01*
X0485433Y0114175D02*
X0536133Y0114175D01*
X0536133Y0115174D02*
X0485433Y0115174D01*
X0485433Y0116172D02*
X0536133Y0116172D01*
X0536133Y0117171D02*
X0485433Y0117171D01*
X0485433Y0118170D02*
X0536133Y0118170D01*
X0536133Y0119168D02*
X0485433Y0119168D01*
X0485433Y0120167D02*
X0536133Y0120167D01*
X0536133Y0121165D02*
X0485433Y0121165D01*
X0485433Y0122164D02*
X0536133Y0122164D01*
X0536133Y0123162D02*
X0485433Y0123162D01*
X0485433Y0124161D02*
X0536133Y0124161D01*
X0536133Y0125159D02*
X0485433Y0125159D01*
X0485433Y0126158D02*
X0536133Y0126158D01*
X0536133Y0127156D02*
X0485433Y0127156D01*
X0485433Y0128155D02*
X0536133Y0128155D01*
X0536133Y0129153D02*
X0485433Y0129153D01*
X0485433Y0130152D02*
X0536133Y0130152D01*
X0536133Y0131150D02*
X0485433Y0131150D01*
X0485433Y0132149D02*
X0536133Y0132149D01*
X0536133Y0133147D02*
X0485433Y0133147D01*
X0485433Y0134146D02*
X0536133Y0134146D01*
X0536133Y0135144D02*
X0485433Y0135144D01*
X0485433Y0136143D02*
X0536133Y0136143D01*
X0536133Y0137141D02*
X0485433Y0137141D01*
X0485433Y0138140D02*
X0536133Y0138140D01*
X0536133Y0139138D02*
X0485433Y0139138D01*
X0485433Y0140137D02*
X0536133Y0140137D01*
X0536133Y0141135D02*
X0485433Y0141135D01*
X0485433Y0142134D02*
X0536133Y0142134D01*
X0536133Y0143132D02*
X0485433Y0143132D01*
X0485433Y0144131D02*
X0536133Y0144131D01*
X0536133Y0145129D02*
X0485433Y0145129D01*
X0485433Y0146128D02*
X0536133Y0146128D01*
X0536133Y0147126D02*
X0485433Y0147126D01*
X0485433Y0148125D02*
X0536133Y0148125D01*
X0536133Y0149123D02*
X0485433Y0149123D01*
X0485433Y0150122D02*
X0536133Y0150122D01*
X0536133Y0151120D02*
X0485433Y0151120D01*
X0485433Y0152119D02*
X0536133Y0152119D01*
X0536133Y0153117D02*
X0485433Y0153117D01*
X0485433Y0154116D02*
X0536133Y0154116D01*
X0536133Y0155114D02*
X0485433Y0155114D01*
X0485433Y0156113D02*
X0536133Y0156113D01*
X0536133Y0157111D02*
X0485433Y0157111D01*
X0485433Y0158110D02*
X0536133Y0158110D01*
X0536133Y0159108D02*
X0485433Y0159108D01*
X0485433Y0160107D02*
X0536133Y0160107D01*
X0536133Y0161105D02*
X0485433Y0161105D01*
X0485433Y0162104D02*
X0536133Y0162104D01*
X0536825Y0163103D02*
X0485433Y0163103D01*
X0485433Y0164101D02*
X0537823Y0164101D01*
X0538822Y0165100D02*
X0485433Y0165100D01*
X0485433Y0166098D02*
X0539820Y0166098D01*
X0540819Y0167097D02*
X0485433Y0167097D01*
X0485433Y0168095D02*
X0541817Y0168095D01*
X0542816Y0169094D02*
X0485433Y0169094D01*
X0485433Y0170092D02*
X0543814Y0170092D01*
X0544813Y0171091D02*
X0485433Y0171091D01*
X0485433Y0172089D02*
X0545811Y0172089D01*
X0546810Y0173088D02*
X0485433Y0173088D01*
X0485433Y0174086D02*
X0547808Y0174086D01*
X0548807Y0175085D02*
X0485433Y0175085D01*
X0485433Y0176083D02*
X0549805Y0176083D01*
X0550804Y0177082D02*
X0485433Y0177082D01*
X0485433Y0178080D02*
X0551802Y0178080D01*
X0552801Y0179079D02*
X0485433Y0179079D01*
X0485433Y0180077D02*
X0553799Y0180077D01*
X0554798Y0181076D02*
X0485433Y0181076D01*
X0485433Y0182074D02*
X0555796Y0182074D01*
X0556795Y0183073D02*
X0485433Y0183073D01*
X0485433Y0184071D02*
X0557793Y0184071D01*
X0558792Y0185070D02*
X0485433Y0185070D01*
X0485433Y0186068D02*
X0559790Y0186068D01*
X0560789Y0187067D02*
X0485433Y0187067D01*
X0485433Y0188065D02*
X0561133Y0188065D01*
X0561133Y0189064D02*
X0485433Y0189064D01*
X0485433Y0190062D02*
X0561133Y0190062D01*
X0561133Y0191061D02*
X0485433Y0191061D01*
X0485433Y0192059D02*
X0561133Y0192059D01*
X0561133Y0193058D02*
X0485433Y0193058D01*
X0485433Y0194056D02*
X0561133Y0194056D01*
X0561133Y0195055D02*
X0485433Y0195055D01*
X0485433Y0196053D02*
X0561133Y0196053D01*
X0560145Y0197052D02*
X0556522Y0197052D01*
X0557520Y0198050D02*
X0559146Y0198050D01*
X0558504Y0199049D02*
X0558163Y0199049D01*
X0558126Y0204041D02*
X0558541Y0204041D01*
X0559237Y0205040D02*
X0557430Y0205040D01*
X0556432Y0206039D02*
X0560235Y0206039D01*
X0563333Y0201500D02*
X0563333Y0186500D01*
X0538333Y0161500D01*
X0538333Y0111500D01*
X0572270Y0077563D01*
X0572270Y0076972D01*
X0574286Y0081225D02*
X0576313Y0081225D01*
X0579857Y0081225D02*
X0580432Y0081225D01*
X0580432Y0080226D02*
X0579857Y0080226D01*
X0579857Y0079228D02*
X0580432Y0079228D01*
X0580432Y0078229D02*
X0579857Y0078229D01*
X0580432Y0077231D02*
X0655464Y0077231D01*
X0655464Y0078229D02*
X0584644Y0078229D01*
X0584644Y0079228D02*
X0655464Y0079228D01*
X0655464Y0080226D02*
X0652330Y0080226D01*
X0652368Y0080264D02*
X0652566Y0080606D01*
X0652668Y0080988D01*
X0652668Y0082472D01*
X0649684Y0082472D01*
X0649684Y0079685D01*
X0651365Y0079685D01*
X0651747Y0079787D01*
X0652089Y0079985D01*
X0652368Y0080264D01*
X0652668Y0081225D02*
X0655464Y0081225D01*
X0655464Y0082223D02*
X0652668Y0082223D01*
X0652668Y0083047D02*
X0652668Y0084532D01*
X0652566Y0084914D01*
X0652368Y0085256D01*
X0652089Y0085535D01*
X0651747Y0085732D01*
X0651365Y0085835D01*
X0649684Y0085835D01*
X0649684Y0083047D01*
X0652668Y0083047D01*
X0652668Y0083222D02*
X0655464Y0083222D01*
X0654193Y0084220D02*
X0652668Y0084220D01*
X0652390Y0085219D02*
X0654192Y0085219D01*
X0654192Y0086217D02*
X0566727Y0086217D01*
X0565729Y0087216D02*
X0646670Y0087216D01*
X0646920Y0086965D02*
X0645925Y0087961D01*
X0645925Y0092519D01*
X0646920Y0093515D01*
X0649560Y0093515D01*
X0653692Y0097647D01*
X0653692Y0108146D01*
X0653333Y0108505D01*
X0652856Y0108028D01*
X0648692Y0108028D01*
X0647696Y0109024D01*
X0647696Y0109300D01*
X0642422Y0109300D01*
X0633922Y0117800D01*
X0632597Y0117800D01*
X0631237Y0118363D01*
X0630197Y0119404D01*
X0629633Y0120764D01*
X0629633Y0122236D01*
X0630197Y0123596D01*
X0631237Y0124637D01*
X0632597Y0125200D01*
X0634069Y0125200D01*
X0635429Y0124637D01*
X0636470Y0123596D01*
X0637033Y0122236D01*
X0637033Y0120911D01*
X0644245Y0113700D01*
X0647696Y0113700D01*
X0647696Y0113976D01*
X0648692Y0114972D01*
X0652856Y0114972D01*
X0653333Y0114495D01*
X0653810Y0114972D01*
X0657974Y0114972D01*
X0658970Y0113976D01*
X0658970Y0109024D01*
X0658092Y0108146D01*
X0658092Y0095825D01*
X0652868Y0090601D01*
X0652868Y0087961D01*
X0651872Y0086965D01*
X0646920Y0086965D01*
X0647427Y0085835D02*
X0647046Y0085732D01*
X0646704Y0085535D01*
X0646424Y0085256D01*
X0646227Y0084914D01*
X0646125Y0084532D01*
X0646125Y0083047D01*
X0649109Y0083047D01*
X0649109Y0082472D01*
X0649684Y0082472D01*
X0649684Y0083047D01*
X0649109Y0083047D01*
X0649109Y0085835D01*
X0647427Y0085835D01*
X0646403Y0085219D02*
X0567726Y0085219D01*
X0568724Y0084220D02*
X0646125Y0084220D01*
X0646125Y0083222D02*
X0569723Y0083222D01*
X0570721Y0082223D02*
X0646125Y0082223D01*
X0646125Y0082472D02*
X0646125Y0080988D01*
X0646227Y0080606D01*
X0646424Y0080264D01*
X0646704Y0079985D01*
X0647046Y0079787D01*
X0647427Y0079685D01*
X0649109Y0079685D01*
X0649109Y0082472D01*
X0646125Y0082472D01*
X0646125Y0081225D02*
X0583976Y0081225D01*
X0584629Y0080226D02*
X0646462Y0080226D01*
X0649109Y0080226D02*
X0649684Y0080226D01*
X0649684Y0081225D02*
X0649109Y0081225D01*
X0649109Y0082223D02*
X0649684Y0082223D01*
X0649684Y0083222D02*
X0649109Y0083222D01*
X0649109Y0084220D02*
X0649684Y0084220D01*
X0649684Y0085219D02*
X0649109Y0085219D01*
X0652122Y0087216D02*
X0654192Y0087216D01*
X0654192Y0088214D02*
X0652868Y0088214D01*
X0652868Y0089213D02*
X0654626Y0089213D01*
X0652868Y0090211D02*
X0673181Y0090211D01*
X0673181Y0091210D02*
X0653477Y0091210D01*
X0654476Y0092208D02*
X0673181Y0092208D01*
X0673181Y0093207D02*
X0655474Y0093207D01*
X0656473Y0094205D02*
X0673181Y0094205D01*
X0673181Y0095204D02*
X0657471Y0095204D01*
X0658092Y0096202D02*
X0673181Y0096202D01*
X0673181Y0097201D02*
X0658092Y0097201D01*
X0658092Y0098199D02*
X0673181Y0098199D01*
X0673181Y0099198D02*
X0658092Y0099198D01*
X0658092Y0100196D02*
X0673181Y0100196D01*
X0673181Y0101195D02*
X0658092Y0101195D01*
X0658092Y0102193D02*
X0673181Y0102193D01*
X0673181Y0103192D02*
X0658092Y0103192D01*
X0658092Y0104190D02*
X0673181Y0104190D01*
X0673181Y0105189D02*
X0658092Y0105189D01*
X0658092Y0106187D02*
X0673181Y0106187D01*
X0673181Y0107186D02*
X0658092Y0107186D01*
X0658131Y0108184D02*
X0673181Y0108184D01*
X0672144Y0109183D02*
X0658970Y0109183D01*
X0658970Y0110181D02*
X0672106Y0110181D01*
X0672106Y0111180D02*
X0658970Y0111180D01*
X0658970Y0112178D02*
X0672106Y0112178D01*
X0672106Y0113177D02*
X0658970Y0113177D01*
X0658771Y0114175D02*
X0672502Y0114175D01*
X0675381Y0111500D02*
X0675381Y0087012D01*
X0675892Y0086500D01*
X0678970Y0086217D02*
X0681133Y0086217D01*
X0681133Y0085219D02*
X0678970Y0085219D01*
X0678970Y0084220D02*
X0681133Y0084220D01*
X0681133Y0083222D02*
X0678168Y0083222D01*
X0678970Y0087216D02*
X0681133Y0087216D01*
X0681133Y0088214D02*
X0678970Y0088214D01*
X0678733Y0089213D02*
X0681133Y0089213D01*
X0681133Y0090211D02*
X0677581Y0090211D01*
X0677581Y0091210D02*
X0681133Y0091210D01*
X0681133Y0092208D02*
X0677581Y0092208D01*
X0677581Y0093207D02*
X0681133Y0093207D01*
X0681133Y0094205D02*
X0677581Y0094205D01*
X0677581Y0095204D02*
X0681133Y0095204D01*
X0681133Y0096202D02*
X0677581Y0096202D01*
X0677581Y0097201D02*
X0681133Y0097201D01*
X0681133Y0098199D02*
X0677581Y0098199D01*
X0677581Y0099198D02*
X0681133Y0099198D01*
X0681133Y0100196D02*
X0677581Y0100196D01*
X0677581Y0101195D02*
X0681133Y0101195D01*
X0681133Y0102193D02*
X0677581Y0102193D01*
X0677581Y0103192D02*
X0681133Y0103192D01*
X0681133Y0104190D02*
X0677581Y0104190D01*
X0677581Y0105189D02*
X0681133Y0105189D01*
X0680535Y0106187D02*
X0677581Y0106187D01*
X0677581Y0107186D02*
X0679536Y0107186D01*
X0679086Y0108184D02*
X0677581Y0108184D01*
X0678259Y0114175D02*
X0678408Y0114175D01*
X0681133Y0115174D02*
X0642771Y0115174D01*
X0643769Y0114175D02*
X0647896Y0114175D01*
X0650774Y0111500D02*
X0643333Y0111500D01*
X0633333Y0121500D01*
X0630761Y0124161D02*
X0540533Y0124161D01*
X0540533Y0125159D02*
X0632499Y0125159D01*
X0634168Y0125159D02*
X0676563Y0125159D01*
X0677561Y0124161D02*
X0635905Y0124161D01*
X0636650Y0123162D02*
X0678560Y0123162D01*
X0679558Y0122164D02*
X0637033Y0122164D01*
X0637033Y0121165D02*
X0680557Y0121165D01*
X0681133Y0120167D02*
X0637778Y0120167D01*
X0638777Y0119168D02*
X0681133Y0119168D01*
X0681133Y0118170D02*
X0639775Y0118170D01*
X0640774Y0117171D02*
X0681133Y0117171D01*
X0681133Y0116172D02*
X0641772Y0116172D01*
X0638545Y0113177D02*
X0540533Y0113177D01*
X0540533Y0114175D02*
X0637547Y0114175D01*
X0636548Y0115174D02*
X0540533Y0115174D01*
X0540533Y0116172D02*
X0635550Y0116172D01*
X0634551Y0117171D02*
X0540533Y0117171D01*
X0540533Y0118170D02*
X0631705Y0118170D01*
X0630433Y0119168D02*
X0540533Y0119168D01*
X0540533Y0120167D02*
X0629881Y0120167D01*
X0629633Y0121165D02*
X0540533Y0121165D01*
X0540533Y0122164D02*
X0629633Y0122164D01*
X0630017Y0123162D02*
X0540533Y0123162D01*
X0540533Y0126158D02*
X0675564Y0126158D01*
X0674566Y0127156D02*
X0540533Y0127156D01*
X0540533Y0128155D02*
X0673567Y0128155D01*
X0672569Y0129153D02*
X0540533Y0129153D01*
X0540533Y0130152D02*
X0671570Y0130152D01*
X0670572Y0131150D02*
X0540533Y0131150D01*
X0540533Y0132149D02*
X0545880Y0132149D01*
X0545986Y0132043D02*
X0547713Y0131328D01*
X0549583Y0131328D01*
X0551311Y0132043D01*
X0552633Y0133365D01*
X0552728Y0133595D01*
X0553090Y0133096D01*
X0553591Y0132595D01*
X0554164Y0132179D01*
X0554795Y0131857D01*
X0555469Y0131638D01*
X0556168Y0131528D01*
X0556235Y0131528D01*
X0556235Y0135740D01*
X0556810Y0135740D01*
X0556810Y0131528D01*
X0556876Y0131528D01*
X0557576Y0131638D01*
X0558250Y0131857D01*
X0558881Y0132179D01*
X0559454Y0132595D01*
X0559955Y0133096D01*
X0560317Y0133595D01*
X0560412Y0133365D01*
X0561734Y0132043D01*
X0563461Y0131328D01*
X0565331Y0131328D01*
X0567059Y0132043D01*
X0568333Y0133318D01*
X0569608Y0132043D01*
X0571335Y0131328D01*
X0573205Y0131328D01*
X0574933Y0132043D01*
X0576207Y0133318D01*
X0577482Y0132043D01*
X0579209Y0131328D01*
X0581079Y0131328D01*
X0582807Y0132043D01*
X0584129Y0133365D01*
X0584844Y0135093D01*
X0584844Y0136962D01*
X0584129Y0138690D01*
X0582807Y0140012D01*
X0581079Y0140728D01*
X0579209Y0140728D01*
X0577482Y0140012D01*
X0576207Y0138737D01*
X0574945Y0140000D01*
X0629245Y0194300D01*
X0630533Y0195589D01*
X0630533Y0196566D01*
X0631392Y0196922D01*
X0632911Y0198441D01*
X0633333Y0199460D01*
X0633755Y0198441D01*
X0635274Y0196922D01*
X0637259Y0196100D01*
X0639407Y0196100D01*
X0641392Y0196922D01*
X0642911Y0198441D01*
X0643333Y0199460D01*
X0643755Y0198441D01*
X0645274Y0196922D01*
X0647259Y0196100D01*
X0649407Y0196100D01*
X0651392Y0196922D01*
X0652911Y0198441D01*
X0653333Y0199460D01*
X0653755Y0198441D01*
X0655274Y0196922D01*
X0657259Y0196100D01*
X0659407Y0196100D01*
X0661392Y0196922D01*
X0662911Y0198441D01*
X0663333Y0199460D01*
X0663755Y0198441D01*
X0665274Y0196922D01*
X0667259Y0196100D01*
X0669407Y0196100D01*
X0671392Y0196922D01*
X0672911Y0198441D01*
X0673333Y0199460D01*
X0673755Y0198441D01*
X0675274Y0196922D01*
X0677259Y0196100D01*
X0679407Y0196100D01*
X0681392Y0196922D01*
X0682911Y0198441D01*
X0683333Y0199460D01*
X0683755Y0198441D01*
X0685274Y0196922D01*
X0687259Y0196100D01*
X0689407Y0196100D01*
X0691392Y0196922D01*
X0692911Y0198441D01*
X0693333Y0199460D01*
X0693755Y0198441D01*
X0695274Y0196922D01*
X0697259Y0196100D01*
X0699407Y0196100D01*
X0701392Y0196922D01*
X0702911Y0198441D01*
X0703733Y0200426D01*
X0703733Y0202574D01*
X0702911Y0204559D01*
X0701392Y0206078D01*
X0699407Y0206900D01*
X0697259Y0206900D01*
X0695274Y0206078D01*
X0693755Y0204559D01*
X0693333Y0203540D01*
X0692911Y0204559D01*
X0691392Y0206078D01*
X0689407Y0206900D01*
X0687259Y0206900D01*
X0685274Y0206078D01*
X0683755Y0204559D01*
X0683333Y0203540D01*
X0682911Y0204559D01*
X0681392Y0206078D01*
X0679407Y0206900D01*
X0677259Y0206900D01*
X0675274Y0206078D01*
X0673755Y0204559D01*
X0673333Y0203540D01*
X0672911Y0204559D01*
X0671392Y0206078D01*
X0669407Y0206900D01*
X0667259Y0206900D01*
X0665274Y0206078D01*
X0663755Y0204559D01*
X0663333Y0203540D01*
X0662911Y0204559D01*
X0661392Y0206078D01*
X0659407Y0206900D01*
X0657259Y0206900D01*
X0655274Y0206078D01*
X0653755Y0204559D01*
X0653333Y0203540D01*
X0652911Y0204559D01*
X0651392Y0206078D01*
X0649407Y0206900D01*
X0647259Y0206900D01*
X0645274Y0206078D01*
X0643755Y0204559D01*
X0643333Y0203540D01*
X0642911Y0204559D01*
X0641392Y0206078D01*
X0639407Y0206900D01*
X0637259Y0206900D01*
X0635274Y0206078D01*
X0633755Y0204559D01*
X0633333Y0203540D01*
X0632911Y0204559D01*
X0631392Y0206078D01*
X0629407Y0206900D01*
X0627259Y0206900D01*
X0625274Y0206078D01*
X0623755Y0204559D01*
X0622933Y0202574D01*
X0622933Y0200426D01*
X0623755Y0198441D01*
X0625274Y0196922D01*
X0625536Y0196814D01*
X0570070Y0141348D01*
X0570070Y0140204D01*
X0569608Y0140012D01*
X0568333Y0138737D01*
X0567059Y0140012D01*
X0565331Y0140728D01*
X0563461Y0140728D01*
X0561734Y0140012D01*
X0560412Y0138690D01*
X0560317Y0138461D01*
X0559955Y0138959D01*
X0559454Y0139460D01*
X0558881Y0139876D01*
X0558250Y0140198D01*
X0557576Y0140417D01*
X0556876Y0140528D01*
X0556810Y0140528D01*
X0556810Y0136315D01*
X0556235Y0136315D01*
X0556235Y0140528D01*
X0556168Y0140528D01*
X0555469Y0140417D01*
X0554795Y0140198D01*
X0554164Y0139876D01*
X0553591Y0139460D01*
X0553090Y0138959D01*
X0552728Y0138461D01*
X0552633Y0138690D01*
X0551311Y0140012D01*
X0549583Y0140728D01*
X0547713Y0140728D01*
X0545986Y0140012D01*
X0544664Y0138690D01*
X0543948Y0136962D01*
X0543948Y0135093D01*
X0544664Y0133365D01*
X0545986Y0132043D01*
X0544882Y0133147D02*
X0540533Y0133147D01*
X0540533Y0134146D02*
X0544341Y0134146D01*
X0543948Y0135144D02*
X0540533Y0135144D01*
X0540533Y0136143D02*
X0543948Y0136143D01*
X0544022Y0137141D02*
X0540533Y0137141D01*
X0540533Y0138140D02*
X0544436Y0138140D01*
X0545112Y0139138D02*
X0540533Y0139138D01*
X0540533Y0140137D02*
X0546287Y0140137D01*
X0551009Y0140137D02*
X0554675Y0140137D01*
X0556235Y0140137D02*
X0556810Y0140137D01*
X0556810Y0139138D02*
X0556235Y0139138D01*
X0556235Y0138140D02*
X0556810Y0138140D01*
X0556810Y0137141D02*
X0556235Y0137141D01*
X0556235Y0135144D02*
X0556810Y0135144D01*
X0556810Y0134146D02*
X0556235Y0134146D01*
X0556235Y0133147D02*
X0556810Y0133147D01*
X0556810Y0132149D02*
X0556235Y0132149D01*
X0554223Y0132149D02*
X0551416Y0132149D01*
X0552415Y0133147D02*
X0553053Y0133147D01*
X0558822Y0132149D02*
X0561628Y0132149D01*
X0560630Y0133147D02*
X0559992Y0133147D01*
X0567164Y0132149D02*
X0569502Y0132149D01*
X0568504Y0133147D02*
X0568163Y0133147D01*
X0572270Y0136028D02*
X0572270Y0140437D01*
X0628333Y0196500D01*
X0628333Y0201500D01*
X0624237Y0205040D02*
X0617430Y0205040D01*
X0618126Y0204041D02*
X0623541Y0204041D01*
X0623128Y0203043D02*
X0618539Y0203043D01*
X0618733Y0202044D02*
X0622933Y0202044D01*
X0622933Y0201046D02*
X0618733Y0201046D01*
X0618577Y0200047D02*
X0623090Y0200047D01*
X0623504Y0199049D02*
X0618163Y0199049D01*
X0617520Y0198050D02*
X0624146Y0198050D01*
X0625145Y0197052D02*
X0616522Y0197052D01*
X0610145Y0197052D02*
X0606522Y0197052D01*
X0607520Y0198050D02*
X0609146Y0198050D01*
X0608504Y0199049D02*
X0608163Y0199049D01*
X0608126Y0204041D02*
X0608541Y0204041D01*
X0609237Y0205040D02*
X0607430Y0205040D01*
X0606432Y0206039D02*
X0610235Y0206039D01*
X0616432Y0206039D02*
X0625235Y0206039D01*
X0631432Y0206039D02*
X0635235Y0206039D01*
X0634237Y0205040D02*
X0632430Y0205040D01*
X0633126Y0204041D02*
X0633541Y0204041D01*
X0633504Y0199049D02*
X0633163Y0199049D01*
X0632520Y0198050D02*
X0634146Y0198050D01*
X0635145Y0197052D02*
X0631522Y0197052D01*
X0630533Y0196053D02*
X0706233Y0196053D01*
X0706233Y0195055D02*
X0629999Y0195055D01*
X0629001Y0194056D02*
X0706233Y0194056D01*
X0706233Y0193058D02*
X0628002Y0193058D01*
X0627004Y0192059D02*
X0706233Y0192059D01*
X0706233Y0191061D02*
X0626005Y0191061D01*
X0625007Y0190062D02*
X0706233Y0190062D01*
X0706233Y0189064D02*
X0624008Y0189064D01*
X0623010Y0188065D02*
X0706233Y0188065D01*
X0706233Y0187067D02*
X0622011Y0187067D01*
X0621013Y0186068D02*
X0706233Y0186068D01*
X0706233Y0185070D02*
X0620014Y0185070D01*
X0619016Y0184071D02*
X0706233Y0184071D01*
X0706233Y0183073D02*
X0618017Y0183073D01*
X0617019Y0182074D02*
X0706233Y0182074D01*
X0706233Y0181076D02*
X0616020Y0181076D01*
X0615022Y0180077D02*
X0706233Y0180077D01*
X0706233Y0179079D02*
X0614023Y0179079D01*
X0613025Y0178080D02*
X0706233Y0178080D01*
X0706233Y0177082D02*
X0612026Y0177082D01*
X0611028Y0176083D02*
X0706233Y0176083D01*
X0706233Y0175085D02*
X0610029Y0175085D01*
X0609031Y0174086D02*
X0706233Y0174086D01*
X0706233Y0173088D02*
X0608032Y0173088D01*
X0607034Y0172089D02*
X0706233Y0172089D01*
X0706233Y0171091D02*
X0606035Y0171091D01*
X0605037Y0170092D02*
X0706233Y0170092D01*
X0706233Y0169094D02*
X0604038Y0169094D01*
X0603040Y0168095D02*
X0706233Y0168095D01*
X0706233Y0167097D02*
X0602041Y0167097D01*
X0601043Y0166098D02*
X0706233Y0166098D01*
X0706233Y0165100D02*
X0600044Y0165100D01*
X0599046Y0164101D02*
X0706233Y0164101D01*
X0706233Y0163103D02*
X0598047Y0163103D01*
X0597049Y0162104D02*
X0706233Y0162104D01*
X0706233Y0161105D02*
X0596050Y0161105D01*
X0595052Y0160107D02*
X0706756Y0160107D01*
X0706233Y0160630D02*
X0716233Y0150630D01*
X0716233Y0022370D01*
X0707463Y0013600D01*
X0706233Y0012370D01*
X0706233Y0003600D01*
X0494203Y0003600D01*
X0485433Y0012370D01*
X0485433Y0200630D01*
X0494203Y0209400D01*
X0702463Y0209400D01*
X0706233Y0205630D01*
X0706233Y0160630D01*
X0707755Y0159108D02*
X0594053Y0159108D01*
X0593055Y0158110D02*
X0708754Y0158110D01*
X0709752Y0157111D02*
X0592056Y0157111D01*
X0591058Y0156113D02*
X0710751Y0156113D01*
X0711749Y0155114D02*
X0590059Y0155114D01*
X0589061Y0154116D02*
X0712748Y0154116D01*
X0713746Y0153117D02*
X0588062Y0153117D01*
X0587063Y0152119D02*
X0714745Y0152119D01*
X0715743Y0151120D02*
X0586065Y0151120D01*
X0585066Y0150122D02*
X0716233Y0150122D01*
X0716233Y0149123D02*
X0584068Y0149123D01*
X0583069Y0148125D02*
X0716233Y0148125D01*
X0716233Y0147126D02*
X0582071Y0147126D01*
X0581072Y0146128D02*
X0716233Y0146128D01*
X0716233Y0145129D02*
X0580074Y0145129D01*
X0579075Y0144131D02*
X0716233Y0144131D01*
X0716233Y0143132D02*
X0578077Y0143132D01*
X0577078Y0142134D02*
X0716233Y0142134D01*
X0716233Y0141135D02*
X0576080Y0141135D01*
X0575081Y0140137D02*
X0577783Y0140137D01*
X0576608Y0139138D02*
X0575806Y0139138D01*
X0571854Y0143132D02*
X0540533Y0143132D01*
X0540533Y0142134D02*
X0570856Y0142134D01*
X0570070Y0141135D02*
X0540533Y0141135D01*
X0540533Y0144131D02*
X0572853Y0144131D01*
X0573851Y0145129D02*
X0540533Y0145129D01*
X0540533Y0146128D02*
X0574850Y0146128D01*
X0575848Y0147126D02*
X0540533Y0147126D01*
X0540533Y0148125D02*
X0576847Y0148125D01*
X0577845Y0149123D02*
X0540533Y0149123D01*
X0540533Y0150122D02*
X0578844Y0150122D01*
X0579842Y0151120D02*
X0540533Y0151120D01*
X0540533Y0152119D02*
X0580841Y0152119D01*
X0581839Y0153117D02*
X0540533Y0153117D01*
X0540533Y0154116D02*
X0582838Y0154116D01*
X0583837Y0155114D02*
X0540533Y0155114D01*
X0540533Y0156113D02*
X0584835Y0156113D01*
X0585834Y0157111D02*
X0540533Y0157111D01*
X0540533Y0158110D02*
X0586832Y0158110D01*
X0587831Y0159108D02*
X0540533Y0159108D01*
X0540533Y0160107D02*
X0588829Y0160107D01*
X0589828Y0161105D02*
X0541050Y0161105D01*
X0542049Y0162104D02*
X0590826Y0162104D01*
X0591825Y0163103D02*
X0543047Y0163103D01*
X0544046Y0164101D02*
X0592823Y0164101D01*
X0593822Y0165100D02*
X0545044Y0165100D01*
X0546043Y0166098D02*
X0594820Y0166098D01*
X0595819Y0167097D02*
X0547041Y0167097D01*
X0548040Y0168095D02*
X0596817Y0168095D01*
X0597816Y0169094D02*
X0549038Y0169094D01*
X0550037Y0170092D02*
X0598814Y0170092D01*
X0599813Y0171091D02*
X0551035Y0171091D01*
X0552034Y0172089D02*
X0600811Y0172089D01*
X0601810Y0173088D02*
X0553032Y0173088D01*
X0554031Y0174086D02*
X0602808Y0174086D01*
X0603807Y0175085D02*
X0555029Y0175085D01*
X0556028Y0176083D02*
X0604805Y0176083D01*
X0605804Y0177082D02*
X0557026Y0177082D01*
X0558025Y0178080D02*
X0606802Y0178080D01*
X0607801Y0179079D02*
X0559023Y0179079D01*
X0560022Y0180077D02*
X0608799Y0180077D01*
X0609798Y0181076D02*
X0561020Y0181076D01*
X0562019Y0182074D02*
X0610796Y0182074D01*
X0611795Y0183073D02*
X0563017Y0183073D01*
X0564016Y0184071D02*
X0612793Y0184071D01*
X0613792Y0185070D02*
X0565014Y0185070D01*
X0565533Y0186068D02*
X0614790Y0186068D01*
X0615789Y0187067D02*
X0565533Y0187067D01*
X0565533Y0188065D02*
X0616787Y0188065D01*
X0617786Y0189064D02*
X0565533Y0189064D01*
X0565533Y0190062D02*
X0618784Y0190062D01*
X0619783Y0191061D02*
X0565533Y0191061D01*
X0565533Y0192059D02*
X0620781Y0192059D01*
X0621780Y0193058D02*
X0565533Y0193058D01*
X0565533Y0194056D02*
X0622778Y0194056D01*
X0623777Y0195055D02*
X0565533Y0195055D01*
X0565533Y0196053D02*
X0624775Y0196053D01*
X0641522Y0197052D02*
X0645145Y0197052D01*
X0644146Y0198050D02*
X0642520Y0198050D01*
X0643163Y0199049D02*
X0643504Y0199049D01*
X0643541Y0204041D02*
X0643126Y0204041D01*
X0642430Y0205040D02*
X0644237Y0205040D01*
X0645235Y0206039D02*
X0641432Y0206039D01*
X0651432Y0206039D02*
X0655235Y0206039D01*
X0654237Y0205040D02*
X0652430Y0205040D01*
X0653126Y0204041D02*
X0653541Y0204041D01*
X0653504Y0199049D02*
X0653163Y0199049D01*
X0652520Y0198050D02*
X0654146Y0198050D01*
X0655145Y0197052D02*
X0651522Y0197052D01*
X0661522Y0197052D02*
X0665145Y0197052D01*
X0664146Y0198050D02*
X0662520Y0198050D01*
X0663163Y0199049D02*
X0663504Y0199049D01*
X0663541Y0204041D02*
X0663126Y0204041D01*
X0662430Y0205040D02*
X0664237Y0205040D01*
X0665235Y0206039D02*
X0661432Y0206039D01*
X0671432Y0206039D02*
X0675235Y0206039D01*
X0674237Y0205040D02*
X0672430Y0205040D01*
X0673126Y0204041D02*
X0673541Y0204041D01*
X0673504Y0199049D02*
X0673163Y0199049D01*
X0672520Y0198050D02*
X0674146Y0198050D01*
X0675145Y0197052D02*
X0671522Y0197052D01*
X0681522Y0197052D02*
X0685145Y0197052D01*
X0684146Y0198050D02*
X0682520Y0198050D01*
X0683163Y0199049D02*
X0683504Y0199049D01*
X0683541Y0204041D02*
X0683126Y0204041D01*
X0682430Y0205040D02*
X0684237Y0205040D01*
X0685235Y0206039D02*
X0681432Y0206039D01*
X0691432Y0206039D02*
X0695235Y0206039D01*
X0694237Y0205040D02*
X0692430Y0205040D01*
X0693126Y0204041D02*
X0693541Y0204041D01*
X0693504Y0199049D02*
X0693163Y0199049D01*
X0692520Y0198050D02*
X0694146Y0198050D01*
X0695145Y0197052D02*
X0691522Y0197052D01*
X0701522Y0197052D02*
X0706233Y0197052D01*
X0706233Y0198050D02*
X0702520Y0198050D01*
X0703163Y0199049D02*
X0706233Y0199049D01*
X0706233Y0200047D02*
X0703577Y0200047D01*
X0703733Y0201046D02*
X0706233Y0201046D01*
X0706233Y0202044D02*
X0703733Y0202044D01*
X0703539Y0203043D02*
X0706233Y0203043D01*
X0706233Y0204041D02*
X0703126Y0204041D01*
X0702430Y0205040D02*
X0706233Y0205040D01*
X0705825Y0206039D02*
X0701432Y0206039D01*
X0703828Y0208036D02*
X0492839Y0208036D01*
X0493837Y0209034D02*
X0702829Y0209034D01*
X0704826Y0207037D02*
X0491840Y0207037D01*
X0490842Y0206039D02*
X0520235Y0206039D01*
X0519237Y0205040D02*
X0489843Y0205040D01*
X0488845Y0204041D02*
X0518541Y0204041D01*
X0518128Y0203043D02*
X0487846Y0203043D01*
X0486848Y0202044D02*
X0517933Y0202044D01*
X0517933Y0201046D02*
X0485849Y0201046D01*
X0485433Y0200047D02*
X0518090Y0200047D01*
X0518504Y0199049D02*
X0485433Y0199049D01*
X0485433Y0198050D02*
X0519146Y0198050D01*
X0520145Y0197052D02*
X0485433Y0197052D01*
X0526522Y0197052D02*
X0530145Y0197052D01*
X0529146Y0198050D02*
X0527520Y0198050D01*
X0528163Y0199049D02*
X0528504Y0199049D01*
X0528541Y0204041D02*
X0528126Y0204041D01*
X0527430Y0205040D02*
X0529237Y0205040D01*
X0530235Y0206039D02*
X0526432Y0206039D01*
X0536432Y0206039D02*
X0540235Y0206039D01*
X0539237Y0205040D02*
X0537430Y0205040D01*
X0538126Y0204041D02*
X0538541Y0204041D01*
X0538504Y0199049D02*
X0538163Y0199049D01*
X0537520Y0198050D02*
X0539146Y0198050D01*
X0540145Y0197052D02*
X0536522Y0197052D01*
X0546522Y0197052D02*
X0550145Y0197052D01*
X0549146Y0198050D02*
X0547520Y0198050D01*
X0548163Y0199049D02*
X0548504Y0199049D01*
X0548541Y0204041D02*
X0548126Y0204041D01*
X0547430Y0205040D02*
X0549237Y0205040D01*
X0550235Y0206039D02*
X0546432Y0206039D01*
X0566432Y0206039D02*
X0570235Y0206039D01*
X0569237Y0205040D02*
X0567430Y0205040D01*
X0568126Y0204041D02*
X0568541Y0204041D01*
X0568504Y0199049D02*
X0568163Y0199049D01*
X0567520Y0198050D02*
X0569146Y0198050D01*
X0570145Y0197052D02*
X0566522Y0197052D01*
X0576522Y0197052D02*
X0580145Y0197052D01*
X0579146Y0198050D02*
X0577520Y0198050D01*
X0578163Y0199049D02*
X0578504Y0199049D01*
X0578541Y0204041D02*
X0578126Y0204041D01*
X0577430Y0205040D02*
X0579237Y0205040D01*
X0580235Y0206039D02*
X0576432Y0206039D01*
X0586432Y0206039D02*
X0590235Y0206039D01*
X0589237Y0205040D02*
X0587430Y0205040D01*
X0588126Y0204041D02*
X0588541Y0204041D01*
X0588504Y0199049D02*
X0588163Y0199049D01*
X0587520Y0198050D02*
X0589146Y0198050D01*
X0590145Y0197052D02*
X0586522Y0197052D01*
X0596522Y0197052D02*
X0600145Y0197052D01*
X0599146Y0198050D02*
X0597520Y0198050D01*
X0598163Y0199049D02*
X0598504Y0199049D01*
X0598541Y0204041D02*
X0598126Y0204041D01*
X0597430Y0205040D02*
X0599237Y0205040D01*
X0600235Y0206039D02*
X0596432Y0206039D01*
X0598254Y0140137D02*
X0716233Y0140137D01*
X0716233Y0139138D02*
X0599428Y0139138D01*
X0593531Y0140137D02*
X0582506Y0140137D01*
X0583680Y0139138D02*
X0592356Y0139138D01*
X0591680Y0138140D02*
X0584357Y0138140D01*
X0584770Y0137141D02*
X0591266Y0137141D01*
X0591192Y0136143D02*
X0584844Y0136143D01*
X0584844Y0135144D02*
X0591192Y0135144D01*
X0591585Y0134146D02*
X0584452Y0134146D01*
X0583911Y0133147D02*
X0592126Y0133147D01*
X0593124Y0132149D02*
X0582912Y0132149D01*
X0577376Y0132149D02*
X0575038Y0132149D01*
X0576037Y0133147D02*
X0576378Y0133147D01*
X0569909Y0140137D02*
X0566758Y0140137D01*
X0567932Y0139138D02*
X0568734Y0139138D01*
X0562035Y0140137D02*
X0558370Y0140137D01*
X0559776Y0139138D02*
X0560860Y0139138D01*
X0553269Y0139138D02*
X0552184Y0139138D01*
X0540766Y0112178D02*
X0639544Y0112178D01*
X0640542Y0111180D02*
X0541765Y0111180D01*
X0542763Y0110181D02*
X0641541Y0110181D01*
X0647696Y0109183D02*
X0543762Y0109183D01*
X0544760Y0108184D02*
X0648536Y0108184D01*
X0653012Y0108184D02*
X0653654Y0108184D01*
X0653692Y0107186D02*
X0545759Y0107186D01*
X0546757Y0106187D02*
X0653692Y0106187D01*
X0653692Y0105189D02*
X0547756Y0105189D01*
X0548754Y0104190D02*
X0653692Y0104190D01*
X0653692Y0103192D02*
X0549753Y0103192D01*
X0550751Y0102193D02*
X0653692Y0102193D01*
X0653692Y0101195D02*
X0551750Y0101195D01*
X0552748Y0100196D02*
X0653692Y0100196D01*
X0653692Y0099198D02*
X0553747Y0099198D01*
X0554745Y0098199D02*
X0653692Y0098199D01*
X0653246Y0097201D02*
X0555744Y0097201D01*
X0556742Y0096202D02*
X0652247Y0096202D01*
X0651249Y0095204D02*
X0557741Y0095204D01*
X0558739Y0094205D02*
X0650250Y0094205D01*
X0646612Y0093207D02*
X0559738Y0093207D01*
X0560736Y0092208D02*
X0645925Y0092208D01*
X0645925Y0091210D02*
X0561735Y0091210D01*
X0562733Y0090211D02*
X0645925Y0090211D01*
X0645925Y0089213D02*
X0563732Y0089213D01*
X0564730Y0088214D02*
X0645925Y0088214D01*
X0649396Y0090240D02*
X0655892Y0096736D01*
X0655892Y0111500D01*
X0681787Y0126158D02*
X0716233Y0126158D01*
X0716233Y0127156D02*
X0680788Y0127156D01*
X0679790Y0128155D02*
X0716233Y0128155D01*
X0716233Y0129153D02*
X0678791Y0129153D01*
X0677793Y0130152D02*
X0716233Y0130152D01*
X0716233Y0131150D02*
X0676794Y0131150D01*
X0675796Y0132149D02*
X0716233Y0132149D01*
X0716233Y0133147D02*
X0674797Y0133147D01*
X0673799Y0134146D02*
X0716233Y0134146D01*
X0716233Y0135144D02*
X0672800Y0135144D01*
X0671802Y0136143D02*
X0716233Y0136143D01*
X0716233Y0137141D02*
X0670803Y0137141D01*
X0669805Y0138140D02*
X0716233Y0138140D01*
X0716233Y0125159D02*
X0682785Y0125159D01*
X0683784Y0124161D02*
X0716233Y0124161D01*
X0716233Y0123162D02*
X0684783Y0123162D01*
X0685533Y0122164D02*
X0716233Y0122164D01*
X0716233Y0121165D02*
X0685533Y0121165D01*
X0685533Y0120167D02*
X0716233Y0120167D01*
X0716233Y0119168D02*
X0685533Y0119168D01*
X0685533Y0118170D02*
X0716233Y0118170D01*
X0716233Y0117171D02*
X0685533Y0117171D01*
X0685533Y0116172D02*
X0716233Y0116172D01*
X0716233Y0115174D02*
X0685533Y0115174D01*
X0685533Y0114175D02*
X0716233Y0114175D01*
X0716233Y0113177D02*
X0685533Y0113177D01*
X0685076Y0112178D02*
X0716233Y0112178D01*
X0716233Y0111180D02*
X0684561Y0111180D01*
X0684561Y0110181D02*
X0716233Y0110181D01*
X0716233Y0109183D02*
X0684523Y0109183D01*
X0684760Y0108184D02*
X0716233Y0108184D01*
X0716233Y0107186D02*
X0685533Y0107186D01*
X0685533Y0106187D02*
X0716233Y0106187D01*
X0716233Y0105189D02*
X0685533Y0105189D01*
X0685533Y0104190D02*
X0716233Y0104190D01*
X0716233Y0103192D02*
X0685533Y0103192D01*
X0685533Y0102193D02*
X0716233Y0102193D01*
X0716233Y0101195D02*
X0685533Y0101195D01*
X0685533Y0100196D02*
X0716233Y0100196D01*
X0716233Y0099198D02*
X0685533Y0099198D01*
X0685533Y0098199D02*
X0716233Y0098199D01*
X0716233Y0097201D02*
X0685533Y0097201D01*
X0685533Y0096202D02*
X0716233Y0096202D01*
X0716233Y0095204D02*
X0685533Y0095204D01*
X0685533Y0094205D02*
X0716233Y0094205D01*
X0716233Y0093207D02*
X0685533Y0093207D01*
X0685533Y0092208D02*
X0716233Y0092208D01*
X0716233Y0091210D02*
X0685533Y0091210D01*
X0685533Y0090211D02*
X0716233Y0090211D01*
X0716233Y0089213D02*
X0685533Y0089213D01*
X0685533Y0088214D02*
X0716233Y0088214D01*
X0716233Y0087216D02*
X0685533Y0087216D01*
X0685533Y0086217D02*
X0716233Y0086217D01*
X0716233Y0085219D02*
X0685533Y0085219D01*
X0685533Y0084220D02*
X0716233Y0084220D01*
X0716233Y0083222D02*
X0685533Y0083222D01*
X0685533Y0082223D02*
X0716233Y0082223D01*
X0716233Y0081225D02*
X0685533Y0081225D01*
X0685533Y0080226D02*
X0716233Y0080226D01*
X0716233Y0079228D02*
X0685533Y0079228D01*
X0685533Y0078229D02*
X0716233Y0078229D01*
X0716233Y0077231D02*
X0685533Y0077231D01*
X0685533Y0076232D02*
X0716233Y0076232D01*
X0716233Y0075234D02*
X0685533Y0075234D01*
X0685533Y0074235D02*
X0716233Y0074235D01*
X0716233Y0073237D02*
X0685533Y0073237D01*
X0685533Y0072238D02*
X0716233Y0072238D01*
X0716233Y0071239D02*
X0685533Y0071239D01*
X0685533Y0070241D02*
X0716233Y0070241D01*
X0716233Y0069242D02*
X0685533Y0069242D01*
X0685533Y0068244D02*
X0716233Y0068244D01*
X0716233Y0067245D02*
X0685533Y0067245D01*
X0685533Y0066247D02*
X0716233Y0066247D01*
X0716233Y0065248D02*
X0685533Y0065248D01*
X0685533Y0064250D02*
X0716233Y0064250D01*
X0681133Y0069242D02*
X0679211Y0069242D01*
X0680068Y0070241D02*
X0681133Y0070241D01*
X0681133Y0071239D02*
X0680466Y0071239D01*
X0680466Y0072238D02*
X0681133Y0072238D01*
X0681133Y0073237D02*
X0680164Y0073237D01*
X0679442Y0074235D02*
X0681133Y0074235D01*
X0673617Y0083222D02*
X0673050Y0083222D01*
X0670774Y0086500D02*
X0657664Y0086500D01*
X0660702Y0089213D02*
X0667933Y0089213D01*
X0655464Y0076232D02*
X0584644Y0076232D01*
X0584644Y0076685D02*
X0580432Y0076685D01*
X0580432Y0072472D01*
X0583342Y0072472D01*
X0583723Y0072575D01*
X0584065Y0072772D01*
X0584345Y0073051D01*
X0584542Y0073393D01*
X0584644Y0073775D01*
X0584644Y0076685D01*
X0584644Y0075234D02*
X0655464Y0075234D01*
X0655464Y0074235D02*
X0584644Y0074235D01*
X0584451Y0073237D02*
X0655464Y0073237D01*
X0716233Y0043281D02*
X0485433Y0043281D01*
X0485433Y0042283D02*
X0716233Y0042283D01*
X0716233Y0041284D02*
X0485433Y0041284D01*
X0485433Y0040286D02*
X0716233Y0040286D01*
X0716233Y0039287D02*
X0485433Y0039287D01*
X0485433Y0038289D02*
X0716233Y0038289D01*
X0716233Y0037290D02*
X0485433Y0037290D01*
X0485433Y0036292D02*
X0716233Y0036292D01*
X0716233Y0035293D02*
X0485433Y0035293D01*
X0485433Y0034295D02*
X0716233Y0034295D01*
X0716233Y0033296D02*
X0485433Y0033296D01*
X0485433Y0032298D02*
X0716233Y0032298D01*
X0716233Y0031299D02*
X0485433Y0031299D01*
X0485433Y0030301D02*
X0716233Y0030301D01*
X0716233Y0029302D02*
X0485433Y0029302D01*
X0485433Y0028303D02*
X0716233Y0028303D01*
X0716233Y0027305D02*
X0485433Y0027305D01*
X0485433Y0026306D02*
X0716233Y0026306D01*
X0716233Y0025308D02*
X0485433Y0025308D01*
X0485433Y0024309D02*
X0716233Y0024309D01*
X0716233Y0023311D02*
X0485433Y0023311D01*
X0485433Y0022312D02*
X0716176Y0022312D01*
X0715177Y0021314D02*
X0485433Y0021314D01*
X0485433Y0020315D02*
X0714179Y0020315D01*
X0713180Y0019317D02*
X0485433Y0019317D01*
X0485433Y0018318D02*
X0712182Y0018318D01*
X0711183Y0017320D02*
X0485433Y0017320D01*
X0485433Y0016321D02*
X0555862Y0016321D01*
X0555274Y0016078D02*
X0553755Y0014559D01*
X0552933Y0012574D01*
X0552933Y0010426D01*
X0553755Y0008441D01*
X0555274Y0006922D01*
X0557259Y0006100D01*
X0559407Y0006100D01*
X0561392Y0006922D01*
X0562911Y0008441D01*
X0563333Y0009460D01*
X0563755Y0008441D01*
X0565274Y0006922D01*
X0567259Y0006100D01*
X0569407Y0006100D01*
X0571392Y0006922D01*
X0572911Y0008441D01*
X0573333Y0009460D01*
X0573755Y0008441D01*
X0575274Y0006922D01*
X0577259Y0006100D01*
X0579407Y0006100D01*
X0581392Y0006922D01*
X0582911Y0008441D01*
X0583333Y0009460D01*
X0583755Y0008441D01*
X0585274Y0006922D01*
X0587259Y0006100D01*
X0589407Y0006100D01*
X0591392Y0006922D01*
X0592911Y0008441D01*
X0593333Y0009460D01*
X0593755Y0008441D01*
X0595274Y0006922D01*
X0597259Y0006100D01*
X0599407Y0006100D01*
X0601392Y0006922D01*
X0602911Y0008441D01*
X0603333Y0009460D01*
X0603755Y0008441D01*
X0605274Y0006922D01*
X0607259Y0006100D01*
X0609407Y0006100D01*
X0611392Y0006922D01*
X0612911Y0008441D01*
X0613333Y0009460D01*
X0613755Y0008441D01*
X0615274Y0006922D01*
X0617259Y0006100D01*
X0619407Y0006100D01*
X0621392Y0006922D01*
X0622911Y0008441D01*
X0623333Y0009460D01*
X0623755Y0008441D01*
X0625274Y0006922D01*
X0627259Y0006100D01*
X0629407Y0006100D01*
X0631392Y0006922D01*
X0632911Y0008441D01*
X0633733Y0010426D01*
X0633733Y0012574D01*
X0632911Y0014559D01*
X0631392Y0016078D01*
X0629407Y0016900D01*
X0627259Y0016900D01*
X0625274Y0016078D01*
X0623755Y0014559D01*
X0623333Y0013540D01*
X0622911Y0014559D01*
X0621392Y0016078D01*
X0619407Y0016900D01*
X0617259Y0016900D01*
X0615274Y0016078D01*
X0613755Y0014559D01*
X0613333Y0013540D01*
X0612911Y0014559D01*
X0611392Y0016078D01*
X0609407Y0016900D01*
X0607259Y0016900D01*
X0605274Y0016078D01*
X0603755Y0014559D01*
X0603333Y0013540D01*
X0602911Y0014559D01*
X0601392Y0016078D01*
X0599407Y0016900D01*
X0597259Y0016900D01*
X0595274Y0016078D01*
X0593755Y0014559D01*
X0593333Y0013540D01*
X0592911Y0014559D01*
X0591392Y0016078D01*
X0589407Y0016900D01*
X0587259Y0016900D01*
X0585274Y0016078D01*
X0583755Y0014559D01*
X0583333Y0013540D01*
X0582911Y0014559D01*
X0581392Y0016078D01*
X0579407Y0016900D01*
X0577259Y0016900D01*
X0575274Y0016078D01*
X0573755Y0014559D01*
X0573333Y0013540D01*
X0572911Y0014559D01*
X0571392Y0016078D01*
X0569407Y0016900D01*
X0567259Y0016900D01*
X0565274Y0016078D01*
X0563755Y0014559D01*
X0563333Y0013540D01*
X0562911Y0014559D01*
X0561392Y0016078D01*
X0559407Y0016900D01*
X0557259Y0016900D01*
X0555274Y0016078D01*
X0554519Y0015323D02*
X0485433Y0015323D01*
X0485433Y0014324D02*
X0553658Y0014324D01*
X0553245Y0013326D02*
X0485433Y0013326D01*
X0485476Y0012327D02*
X0552933Y0012327D01*
X0552933Y0011329D02*
X0486474Y0011329D01*
X0487473Y0010330D02*
X0552973Y0010330D01*
X0553387Y0009332D02*
X0488471Y0009332D01*
X0489470Y0008333D02*
X0553863Y0008333D01*
X0554862Y0007335D02*
X0490468Y0007335D01*
X0491467Y0006336D02*
X0556689Y0006336D01*
X0559978Y0006336D02*
X0566689Y0006336D01*
X0564862Y0007335D02*
X0561805Y0007335D01*
X0562803Y0008333D02*
X0563863Y0008333D01*
X0563387Y0009332D02*
X0563280Y0009332D01*
X0563008Y0014324D02*
X0563658Y0014324D01*
X0564519Y0015323D02*
X0562147Y0015323D01*
X0560804Y0016321D02*
X0565862Y0016321D01*
X0570804Y0016321D02*
X0575862Y0016321D01*
X0574519Y0015323D02*
X0572147Y0015323D01*
X0573008Y0014324D02*
X0573658Y0014324D01*
X0573387Y0009332D02*
X0573280Y0009332D01*
X0572803Y0008333D02*
X0573863Y0008333D01*
X0574862Y0007335D02*
X0571805Y0007335D01*
X0569978Y0006336D02*
X0576689Y0006336D01*
X0579978Y0006336D02*
X0586689Y0006336D01*
X0584862Y0007335D02*
X0581805Y0007335D01*
X0582803Y0008333D02*
X0583863Y0008333D01*
X0583387Y0009332D02*
X0583280Y0009332D01*
X0583008Y0014324D02*
X0583658Y0014324D01*
X0584519Y0015323D02*
X0582147Y0015323D01*
X0580804Y0016321D02*
X0585862Y0016321D01*
X0590804Y0016321D02*
X0595862Y0016321D01*
X0594519Y0015323D02*
X0592147Y0015323D01*
X0593008Y0014324D02*
X0593658Y0014324D01*
X0593387Y0009332D02*
X0593280Y0009332D01*
X0592803Y0008333D02*
X0593863Y0008333D01*
X0594862Y0007335D02*
X0591805Y0007335D01*
X0589978Y0006336D02*
X0596689Y0006336D01*
X0599978Y0006336D02*
X0606689Y0006336D01*
X0604862Y0007335D02*
X0601805Y0007335D01*
X0602803Y0008333D02*
X0603863Y0008333D01*
X0603387Y0009332D02*
X0603280Y0009332D01*
X0603008Y0014324D02*
X0603658Y0014324D01*
X0604519Y0015323D02*
X0602147Y0015323D01*
X0600804Y0016321D02*
X0605862Y0016321D01*
X0610804Y0016321D02*
X0615862Y0016321D01*
X0614519Y0015323D02*
X0612147Y0015323D01*
X0613008Y0014324D02*
X0613658Y0014324D01*
X0613387Y0009332D02*
X0613280Y0009332D01*
X0612803Y0008333D02*
X0613863Y0008333D01*
X0614862Y0007335D02*
X0611805Y0007335D01*
X0609978Y0006336D02*
X0616689Y0006336D01*
X0619978Y0006336D02*
X0626689Y0006336D01*
X0624862Y0007335D02*
X0621805Y0007335D01*
X0622803Y0008333D02*
X0623863Y0008333D01*
X0623387Y0009332D02*
X0623280Y0009332D01*
X0623008Y0014324D02*
X0623658Y0014324D01*
X0624519Y0015323D02*
X0622147Y0015323D01*
X0620804Y0016321D02*
X0625862Y0016321D01*
X0630804Y0016321D02*
X0645862Y0016321D01*
X0645274Y0016078D02*
X0643755Y0014559D01*
X0642933Y0012574D01*
X0642933Y0010426D01*
X0643755Y0008441D01*
X0645274Y0006922D01*
X0647259Y0006100D01*
X0649407Y0006100D01*
X0651392Y0006922D01*
X0652911Y0008441D01*
X0653333Y0009460D01*
X0653755Y0008441D01*
X0655274Y0006922D01*
X0657259Y0006100D01*
X0659407Y0006100D01*
X0661392Y0006922D01*
X0662911Y0008441D01*
X0663333Y0009460D01*
X0663755Y0008441D01*
X0665274Y0006922D01*
X0667259Y0006100D01*
X0669407Y0006100D01*
X0671392Y0006922D01*
X0672911Y0008441D01*
X0673333Y0009460D01*
X0673755Y0008441D01*
X0675274Y0006922D01*
X0677259Y0006100D01*
X0679407Y0006100D01*
X0681392Y0006922D01*
X0682911Y0008441D01*
X0683333Y0009460D01*
X0683755Y0008441D01*
X0685274Y0006922D01*
X0687259Y0006100D01*
X0689407Y0006100D01*
X0691392Y0006922D01*
X0692911Y0008441D01*
X0693333Y0009460D01*
X0693755Y0008441D01*
X0695274Y0006922D01*
X0697259Y0006100D01*
X0699407Y0006100D01*
X0701392Y0006922D01*
X0702911Y0008441D01*
X0703733Y0010426D01*
X0703733Y0012574D01*
X0702911Y0014559D01*
X0701392Y0016078D01*
X0699407Y0016900D01*
X0697259Y0016900D01*
X0695274Y0016078D01*
X0693755Y0014559D01*
X0693333Y0013540D01*
X0692911Y0014559D01*
X0691392Y0016078D01*
X0689407Y0016900D01*
X0687259Y0016900D01*
X0685274Y0016078D01*
X0683755Y0014559D01*
X0683333Y0013540D01*
X0682911Y0014559D01*
X0681392Y0016078D01*
X0679407Y0016900D01*
X0677259Y0016900D01*
X0675274Y0016078D01*
X0673755Y0014559D01*
X0673333Y0013540D01*
X0672911Y0014559D01*
X0671392Y0016078D01*
X0669407Y0016900D01*
X0667259Y0016900D01*
X0665274Y0016078D01*
X0663755Y0014559D01*
X0663333Y0013540D01*
X0662911Y0014559D01*
X0661392Y0016078D01*
X0659407Y0016900D01*
X0657259Y0016900D01*
X0655274Y0016078D01*
X0653755Y0014559D01*
X0653333Y0013540D01*
X0652911Y0014559D01*
X0651392Y0016078D01*
X0649407Y0016900D01*
X0647259Y0016900D01*
X0645274Y0016078D01*
X0644519Y0015323D02*
X0632147Y0015323D01*
X0633008Y0014324D02*
X0643658Y0014324D01*
X0643245Y0013326D02*
X0633422Y0013326D01*
X0633733Y0012327D02*
X0642933Y0012327D01*
X0642933Y0011329D02*
X0633733Y0011329D01*
X0633694Y0010330D02*
X0642973Y0010330D01*
X0643387Y0009332D02*
X0633280Y0009332D01*
X0632803Y0008333D02*
X0643863Y0008333D01*
X0644862Y0007335D02*
X0631805Y0007335D01*
X0629978Y0006336D02*
X0646689Y0006336D01*
X0649978Y0006336D02*
X0656689Y0006336D01*
X0654862Y0007335D02*
X0651805Y0007335D01*
X0652803Y0008333D02*
X0653863Y0008333D01*
X0653387Y0009332D02*
X0653280Y0009332D01*
X0653008Y0014324D02*
X0653658Y0014324D01*
X0654519Y0015323D02*
X0652147Y0015323D01*
X0650804Y0016321D02*
X0655862Y0016321D01*
X0660804Y0016321D02*
X0665862Y0016321D01*
X0664519Y0015323D02*
X0662147Y0015323D01*
X0663008Y0014324D02*
X0663658Y0014324D01*
X0663387Y0009332D02*
X0663280Y0009332D01*
X0662803Y0008333D02*
X0663863Y0008333D01*
X0664862Y0007335D02*
X0661805Y0007335D01*
X0659978Y0006336D02*
X0666689Y0006336D01*
X0669978Y0006336D02*
X0676689Y0006336D01*
X0674862Y0007335D02*
X0671805Y0007335D01*
X0672803Y0008333D02*
X0673863Y0008333D01*
X0673387Y0009332D02*
X0673280Y0009332D01*
X0673008Y0014324D02*
X0673658Y0014324D01*
X0674519Y0015323D02*
X0672147Y0015323D01*
X0670804Y0016321D02*
X0675862Y0016321D01*
X0680804Y0016321D02*
X0685862Y0016321D01*
X0684519Y0015323D02*
X0682147Y0015323D01*
X0683008Y0014324D02*
X0683658Y0014324D01*
X0683387Y0009332D02*
X0683280Y0009332D01*
X0682803Y0008333D02*
X0683863Y0008333D01*
X0684862Y0007335D02*
X0681805Y0007335D01*
X0679978Y0006336D02*
X0686689Y0006336D01*
X0689978Y0006336D02*
X0696689Y0006336D01*
X0694862Y0007335D02*
X0691805Y0007335D01*
X0692803Y0008333D02*
X0693863Y0008333D01*
X0693387Y0009332D02*
X0693280Y0009332D01*
X0693008Y0014324D02*
X0693658Y0014324D01*
X0694519Y0015323D02*
X0692147Y0015323D01*
X0690804Y0016321D02*
X0695862Y0016321D01*
X0700804Y0016321D02*
X0710185Y0016321D01*
X0709186Y0015323D02*
X0702147Y0015323D01*
X0703008Y0014324D02*
X0708188Y0014324D01*
X0707189Y0013326D02*
X0703422Y0013326D01*
X0703733Y0012327D02*
X0706233Y0012327D01*
X0706233Y0011329D02*
X0703733Y0011329D01*
X0703694Y0010330D02*
X0706233Y0010330D01*
X0706233Y0009332D02*
X0703280Y0009332D01*
X0702803Y0008333D02*
X0706233Y0008333D01*
X0706233Y0007335D02*
X0701805Y0007335D01*
X0699978Y0006336D02*
X0706233Y0006336D01*
X0706233Y0005338D02*
X0492465Y0005338D01*
X0493464Y0004339D02*
X0706233Y0004339D01*
X0580432Y0073237D02*
X0579857Y0073237D01*
X0579857Y0074235D02*
X0580432Y0074235D01*
X0580432Y0075234D02*
X0579857Y0075234D01*
X0579857Y0076232D02*
X0580432Y0076232D01*
X0575837Y0073237D02*
X0575181Y0073237D01*
X0569359Y0073237D02*
X0567307Y0073237D01*
X0568306Y0074235D02*
X0568361Y0074235D01*
X0561485Y0073237D02*
X0559433Y0073237D01*
X0560432Y0074235D02*
X0560487Y0074235D01*
X0553611Y0073237D02*
X0551559Y0073237D01*
X0552558Y0074235D02*
X0552613Y0074235D01*
X0564499Y0082223D02*
X0485433Y0082223D01*
X0598660Y0132149D02*
X0669573Y0132149D01*
X0668575Y0133147D02*
X0599659Y0133147D01*
D20*
X0633333Y0121500D03*
M02*
