G75*
%MOIN*%
%OFA0B0*%
%FSLAX25Y25*%
%IPPOS*%
%LPD*%
%AMOC8*
5,1,8,0,0,1.08239X$1,22.5*
%
%ADD10C,0.00300*%
%ADD11C,0.00600*%
%ADD12C,0.00800*%
%ADD13R,0.01600X0.02800*%
D10*
X0561980Y0176650D02*
X0561980Y0178502D01*
X0562597Y0179119D01*
X0563832Y0179119D01*
X0564449Y0178502D01*
X0564449Y0176650D01*
X0565683Y0176650D02*
X0561980Y0176650D01*
X0564449Y0177884D02*
X0565683Y0179119D01*
X0565683Y0180333D02*
X0565683Y0182802D01*
X0565066Y0184016D02*
X0565683Y0184633D01*
X0565683Y0185868D01*
X0565066Y0186485D01*
X0564449Y0186485D01*
X0563832Y0185868D01*
X0563832Y0184633D01*
X0563215Y0184016D01*
X0562597Y0184016D01*
X0561980Y0184633D01*
X0561980Y0185868D01*
X0562597Y0186485D01*
X0561980Y0182802D02*
X0561980Y0180333D01*
X0565683Y0180333D01*
X0563832Y0180333D02*
X0563832Y0181568D01*
X0591980Y0180066D02*
X0595683Y0180066D01*
X0595683Y0182534D01*
X0595683Y0183749D02*
X0595683Y0186218D01*
X0595683Y0187432D02*
X0595683Y0189284D01*
X0595066Y0189901D01*
X0592597Y0189901D01*
X0591980Y0189284D01*
X0591980Y0187432D01*
X0595683Y0187432D01*
X0593832Y0184983D02*
X0593832Y0183749D01*
X0595683Y0183749D02*
X0591980Y0183749D01*
X0591980Y0186218D01*
X0591980Y0178851D02*
X0595683Y0176383D01*
X0595683Y0175168D02*
X0595683Y0172699D01*
X0595066Y0172699D01*
X0592597Y0175168D01*
X0591980Y0175168D01*
X0591980Y0172699D01*
X0591980Y0171485D02*
X0592597Y0171485D01*
X0595066Y0169016D01*
X0595683Y0169016D01*
X0595683Y0171485D01*
X0591980Y0171485D02*
X0591980Y0169016D01*
X0591980Y0167802D02*
X0595066Y0167802D01*
X0595683Y0167185D01*
X0595683Y0165950D01*
X0595066Y0165333D01*
X0591980Y0165333D01*
X0592597Y0164119D02*
X0593215Y0164119D01*
X0593832Y0163502D01*
X0593832Y0161650D01*
X0595683Y0161650D02*
X0595683Y0163502D01*
X0595066Y0164119D01*
X0594449Y0164119D01*
X0593832Y0163502D01*
X0592597Y0164119D02*
X0591980Y0163502D01*
X0591980Y0161650D01*
X0595683Y0161650D01*
X0626980Y0172267D02*
X0627597Y0171650D01*
X0628215Y0171650D01*
X0628832Y0172267D01*
X0628832Y0173502D01*
X0629449Y0174119D01*
X0630066Y0174119D01*
X0630683Y0173502D01*
X0630683Y0172267D01*
X0630066Y0171650D01*
X0626980Y0172267D02*
X0626980Y0173502D01*
X0627597Y0174119D01*
X0626980Y0175333D02*
X0630683Y0175333D01*
X0629449Y0176568D01*
X0630683Y0177802D01*
X0626980Y0177802D01*
X0631301Y0179016D02*
X0631301Y0181485D01*
X0630683Y0182699D02*
X0626980Y0182699D01*
X0626980Y0184551D01*
X0627597Y0185168D01*
X0628832Y0185168D01*
X0629449Y0184551D01*
X0629449Y0182699D01*
X0629449Y0183934D02*
X0630683Y0185168D01*
X0630683Y0186383D02*
X0626980Y0188851D01*
X0626980Y0186383D02*
X0630683Y0188851D01*
D11*
X0522198Y0185751D02*
X0521630Y0186318D01*
X0521630Y0187452D01*
X0522198Y0188019D01*
X0523332Y0187452D02*
X0523899Y0188019D01*
X0524466Y0188019D01*
X0525033Y0187452D01*
X0525033Y0186318D01*
X0524466Y0185751D01*
X0523332Y0186318D02*
X0523332Y0187452D01*
X0523332Y0186318D02*
X0522765Y0185751D01*
X0522198Y0185751D01*
X0522198Y0189434D02*
X0524466Y0189434D01*
X0525033Y0190001D01*
X0525033Y0191135D01*
X0524466Y0191702D01*
X0525033Y0193117D02*
X0525033Y0195385D01*
X0525033Y0193117D02*
X0521630Y0193117D01*
X0522198Y0191702D02*
X0521630Y0191135D01*
X0521630Y0190001D01*
X0522198Y0189434D01*
X0531630Y0189434D02*
X0531630Y0191135D01*
X0532198Y0191702D01*
X0534466Y0191702D01*
X0535033Y0191135D01*
X0535033Y0189434D01*
X0531630Y0189434D01*
X0532198Y0188019D02*
X0531630Y0187452D01*
X0531630Y0186318D01*
X0532198Y0185751D01*
X0532765Y0185751D01*
X0533332Y0186318D01*
X0533332Y0187452D01*
X0533899Y0188019D01*
X0534466Y0188019D01*
X0535033Y0187452D01*
X0535033Y0186318D01*
X0534466Y0185751D01*
X0541630Y0185751D02*
X0541630Y0187452D01*
X0542198Y0188019D01*
X0543332Y0188019D01*
X0543899Y0187452D01*
X0543899Y0185751D01*
X0543899Y0186885D02*
X0545033Y0188019D01*
X0545033Y0189434D02*
X0545033Y0191702D01*
X0545033Y0193117D02*
X0541630Y0193117D01*
X0541630Y0195385D01*
X0543332Y0194251D02*
X0543332Y0193117D01*
X0541630Y0191702D02*
X0541630Y0189434D01*
X0545033Y0189434D01*
X0543332Y0189434D02*
X0543332Y0190568D01*
X0551630Y0189434D02*
X0555033Y0191702D01*
X0551630Y0191702D01*
X0551630Y0193117D02*
X0551630Y0194818D01*
X0552198Y0195385D01*
X0554466Y0195385D01*
X0555033Y0194818D01*
X0555033Y0193117D01*
X0551630Y0193117D01*
X0551630Y0189434D02*
X0555033Y0189434D01*
X0554466Y0188019D02*
X0553332Y0188019D01*
X0553332Y0186885D01*
X0554466Y0188019D02*
X0555033Y0187452D01*
X0555033Y0186318D01*
X0554466Y0185751D01*
X0552198Y0185751D01*
X0551630Y0186318D01*
X0551630Y0187452D01*
X0552198Y0188019D01*
X0545033Y0185751D02*
X0541630Y0185751D01*
X0542765Y0184336D02*
X0545033Y0184336D01*
X0543332Y0184336D02*
X0543332Y0182067D01*
X0542765Y0182067D02*
X0541630Y0183202D01*
X0542765Y0184336D01*
X0542765Y0182067D02*
X0545033Y0182067D01*
X0535033Y0193117D02*
X0532765Y0193117D01*
X0531630Y0194251D01*
X0532765Y0195385D01*
X0535033Y0195385D01*
X0533332Y0195385D02*
X0533332Y0193117D01*
X0561630Y0193684D02*
X0561630Y0194818D01*
X0562198Y0195385D01*
X0562765Y0195385D01*
X0563332Y0194818D01*
X0563899Y0195385D01*
X0564466Y0195385D01*
X0565033Y0194818D01*
X0565033Y0193684D01*
X0564466Y0193117D01*
X0565033Y0191702D02*
X0565033Y0189434D01*
X0565033Y0190568D02*
X0561630Y0190568D01*
X0562765Y0189434D01*
X0562198Y0193117D02*
X0561630Y0193684D01*
X0563332Y0194251D02*
X0563332Y0194818D01*
X0571630Y0194818D02*
X0571630Y0193684D01*
X0572198Y0193117D01*
X0571630Y0194818D02*
X0572198Y0195385D01*
X0572765Y0195385D01*
X0575033Y0193117D01*
X0575033Y0195385D01*
X0575033Y0191702D02*
X0575033Y0189434D01*
X0575033Y0190568D02*
X0571630Y0190568D01*
X0572765Y0189434D01*
X0581630Y0190568D02*
X0585033Y0190568D01*
X0585033Y0189434D02*
X0585033Y0191702D01*
X0585033Y0193117D02*
X0585033Y0195385D01*
X0585033Y0194251D02*
X0581630Y0194251D01*
X0582765Y0193117D01*
X0581630Y0190568D02*
X0582765Y0189434D01*
X0591630Y0190568D02*
X0592765Y0189434D01*
X0591630Y0190568D02*
X0595033Y0190568D01*
X0595033Y0189434D02*
X0595033Y0191702D01*
X0594466Y0193117D02*
X0592198Y0195385D01*
X0594466Y0195385D01*
X0595033Y0194818D01*
X0595033Y0193684D01*
X0594466Y0193117D01*
X0592198Y0193117D01*
X0591630Y0193684D01*
X0591630Y0194818D01*
X0592198Y0195385D01*
X0601630Y0194818D02*
X0601630Y0193684D01*
X0602198Y0193117D01*
X0602765Y0193117D01*
X0603332Y0193684D01*
X0603332Y0195385D01*
X0604466Y0195385D02*
X0602198Y0195385D01*
X0601630Y0194818D01*
X0604466Y0195385D02*
X0605033Y0194818D01*
X0605033Y0193684D01*
X0604466Y0193117D01*
X0611630Y0193684D02*
X0611630Y0194818D01*
X0612198Y0195385D01*
X0612765Y0195385D01*
X0613332Y0194818D01*
X0613332Y0193684D01*
X0612765Y0193117D01*
X0612198Y0193117D01*
X0611630Y0193684D01*
X0613332Y0193684D02*
X0613899Y0193117D01*
X0614466Y0193117D01*
X0615033Y0193684D01*
X0615033Y0194818D01*
X0614466Y0195385D01*
X0613899Y0195385D01*
X0613332Y0194818D01*
X0626630Y0195385D02*
X0626630Y0193117D01*
X0626630Y0195385D02*
X0627198Y0195385D01*
X0629466Y0193117D01*
X0630033Y0193117D01*
X0636630Y0195385D02*
X0637198Y0194251D01*
X0638332Y0193117D01*
X0638332Y0194818D01*
X0638899Y0195385D01*
X0639466Y0195385D01*
X0640033Y0194818D01*
X0640033Y0193684D01*
X0639466Y0193117D01*
X0638332Y0193117D01*
X0646630Y0193117D02*
X0646630Y0195385D01*
X0647765Y0194818D02*
X0648332Y0195385D01*
X0649466Y0195385D01*
X0650033Y0194818D01*
X0650033Y0193684D01*
X0649466Y0193117D01*
X0648332Y0193117D02*
X0647765Y0194251D01*
X0647765Y0194818D01*
X0648332Y0193117D02*
X0646630Y0193117D01*
X0656630Y0194818D02*
X0658332Y0193117D01*
X0658332Y0195385D01*
X0660033Y0194818D02*
X0656630Y0194818D01*
X0666630Y0194818D02*
X0666630Y0193684D01*
X0667198Y0193117D01*
X0668332Y0194251D02*
X0668332Y0194818D01*
X0668899Y0195385D01*
X0669466Y0195385D01*
X0670033Y0194818D01*
X0670033Y0193684D01*
X0669466Y0193117D01*
X0668332Y0194818D02*
X0667765Y0195385D01*
X0667198Y0195385D01*
X0666630Y0194818D01*
X0676630Y0194818D02*
X0676630Y0193684D01*
X0677198Y0193117D01*
X0676630Y0194818D02*
X0677198Y0195385D01*
X0677765Y0195385D01*
X0680033Y0193117D01*
X0680033Y0195385D01*
X0686630Y0195385D02*
X0690033Y0193117D01*
X0690033Y0195385D02*
X0686630Y0193117D01*
X0686630Y0191702D02*
X0686630Y0189434D01*
X0686630Y0190568D02*
X0690033Y0190568D01*
X0696630Y0191135D02*
X0696630Y0189434D01*
X0700033Y0189434D01*
X0698899Y0189434D02*
X0698899Y0191135D01*
X0698332Y0191702D01*
X0697198Y0191702D01*
X0696630Y0191135D01*
X0696630Y0193117D02*
X0700033Y0195385D01*
X0700033Y0193117D02*
X0696630Y0195385D01*
X0700033Y0191702D02*
X0698899Y0190568D01*
X0588899Y0032410D02*
X0586630Y0032410D01*
X0586630Y0030141D02*
X0588899Y0030141D01*
X0590033Y0031275D01*
X0588899Y0032410D01*
X0588899Y0028726D02*
X0589466Y0028726D01*
X0590033Y0028159D01*
X0590033Y0027025D01*
X0589466Y0026458D01*
X0589466Y0025183D02*
X0590033Y0025183D01*
X0590033Y0024616D01*
X0589466Y0024616D01*
X0589466Y0025183D01*
X0589466Y0023202D02*
X0590033Y0022635D01*
X0590033Y0021500D01*
X0589466Y0020933D01*
X0588332Y0022067D02*
X0588332Y0022635D01*
X0588899Y0023202D01*
X0589466Y0023202D01*
X0588332Y0022635D02*
X0587765Y0023202D01*
X0587198Y0023202D01*
X0586630Y0022635D01*
X0586630Y0021500D01*
X0587198Y0020933D01*
X0588332Y0019519D02*
X0588332Y0017250D01*
X0587198Y0018384D02*
X0589466Y0018384D01*
X0596630Y0020933D02*
X0598332Y0020933D01*
X0597765Y0022067D01*
X0597765Y0022635D01*
X0598332Y0023202D01*
X0599466Y0023202D01*
X0600033Y0022635D01*
X0600033Y0021500D01*
X0599466Y0020933D01*
X0598332Y0019519D02*
X0598332Y0017250D01*
X0597198Y0018384D02*
X0599466Y0018384D01*
X0596630Y0020933D02*
X0596630Y0023202D01*
X0596630Y0024616D02*
X0598899Y0024616D01*
X0600033Y0025751D01*
X0598899Y0026885D01*
X0596630Y0026885D01*
X0588899Y0028726D02*
X0588332Y0028159D01*
X0588332Y0027592D01*
X0588332Y0028159D02*
X0587765Y0028726D01*
X0587198Y0028726D01*
X0586630Y0028159D01*
X0586630Y0027025D01*
X0587198Y0026458D01*
X0580033Y0025751D02*
X0576630Y0025751D01*
X0576630Y0026885D02*
X0576630Y0024616D01*
X0577198Y0023202D02*
X0576630Y0022635D01*
X0576630Y0021500D01*
X0577198Y0020933D01*
X0577765Y0020933D01*
X0578332Y0021500D01*
X0578332Y0022635D01*
X0578899Y0023202D01*
X0579466Y0023202D01*
X0580033Y0022635D01*
X0580033Y0021500D01*
X0579466Y0020933D01*
X0580033Y0019519D02*
X0578899Y0018384D01*
X0578899Y0018951D02*
X0578899Y0017250D01*
X0580033Y0017250D02*
X0576630Y0017250D01*
X0576630Y0018951D01*
X0577198Y0019519D01*
X0578332Y0019519D01*
X0578899Y0018951D01*
X0570033Y0018384D02*
X0570033Y0017250D01*
X0570033Y0017817D02*
X0566630Y0017817D01*
X0566630Y0017250D02*
X0566630Y0018384D01*
X0567198Y0019705D02*
X0569466Y0019705D01*
X0570033Y0020273D01*
X0570033Y0021407D01*
X0569466Y0021974D01*
X0567198Y0021974D01*
X0566630Y0021407D01*
X0566630Y0020273D01*
X0567198Y0019705D01*
X0566630Y0023389D02*
X0566630Y0025090D01*
X0567198Y0025657D01*
X0568332Y0025657D01*
X0568899Y0025090D01*
X0568899Y0023389D01*
X0568899Y0024523D02*
X0570033Y0025657D01*
X0570033Y0027072D02*
X0570033Y0029340D01*
X0570033Y0030755D02*
X0566630Y0030755D01*
X0566630Y0033023D01*
X0568332Y0031889D02*
X0568332Y0030755D01*
X0566630Y0029340D02*
X0566630Y0027072D01*
X0570033Y0027072D01*
X0568332Y0027072D02*
X0568332Y0028206D01*
X0570033Y0023389D02*
X0566630Y0023389D01*
X0606630Y0023202D02*
X0610033Y0023202D01*
X0606630Y0020933D01*
X0610033Y0020933D01*
X0609466Y0019519D02*
X0608332Y0019519D01*
X0608332Y0018384D01*
X0609466Y0017250D02*
X0610033Y0017817D01*
X0610033Y0018951D01*
X0609466Y0019519D01*
X0607198Y0019519D02*
X0606630Y0018951D01*
X0606630Y0017817D01*
X0607198Y0017250D01*
X0609466Y0017250D01*
X0616630Y0017817D02*
X0617198Y0017250D01*
X0619466Y0017250D01*
X0620033Y0017817D01*
X0620033Y0018951D01*
X0619466Y0019519D01*
X0618332Y0019519D01*
X0618332Y0018384D01*
X0617198Y0019519D02*
X0616630Y0018951D01*
X0616630Y0017817D01*
X0616630Y0020933D02*
X0620033Y0023202D01*
X0616630Y0023202D01*
X0616630Y0024616D02*
X0616630Y0026318D01*
X0617198Y0026885D01*
X0619466Y0026885D01*
X0620033Y0026318D01*
X0620033Y0024616D01*
X0616630Y0024616D01*
X0616630Y0020933D02*
X0620033Y0020933D01*
X0626630Y0020933D02*
X0626630Y0022067D01*
X0626630Y0021500D02*
X0630033Y0021500D01*
X0630033Y0020933D02*
X0630033Y0022067D01*
X0630033Y0023389D02*
X0626630Y0023389D01*
X0630033Y0025657D01*
X0626630Y0025657D01*
X0626630Y0019519D02*
X0628899Y0019519D01*
X0630033Y0018384D01*
X0628899Y0017250D01*
X0626630Y0017250D01*
X0646630Y0017817D02*
X0646630Y0018951D01*
X0647198Y0019519D01*
X0649466Y0017250D01*
X0650033Y0017817D01*
X0650033Y0018951D01*
X0649466Y0019519D01*
X0647198Y0019519D01*
X0646630Y0017817D02*
X0647198Y0017250D01*
X0649466Y0017250D01*
X0656630Y0018384D02*
X0660033Y0018384D01*
X0660033Y0017250D02*
X0660033Y0019519D01*
X0657765Y0017250D02*
X0656630Y0018384D01*
X0658440Y0023250D02*
X0658440Y0025519D01*
X0659575Y0026653D01*
X0660709Y0025519D01*
X0660709Y0023250D01*
X0662124Y0023250D02*
X0662124Y0025519D01*
X0663825Y0025519D01*
X0664392Y0024951D01*
X0664392Y0023250D01*
X0665807Y0023817D02*
X0666374Y0023250D01*
X0668075Y0023250D01*
X0668075Y0024951D01*
X0667508Y0025519D01*
X0666374Y0025519D01*
X0666374Y0024384D02*
X0668075Y0024384D01*
X0666374Y0024384D02*
X0665807Y0023817D01*
X0669490Y0023250D02*
X0670624Y0023250D01*
X0670057Y0023250D02*
X0670057Y0026653D01*
X0669490Y0026653D01*
X0671945Y0024951D02*
X0671945Y0023817D01*
X0672512Y0023250D01*
X0673647Y0023250D01*
X0674214Y0023817D01*
X0674214Y0024951D01*
X0673647Y0025519D01*
X0672512Y0025519D01*
X0671945Y0024951D01*
X0675628Y0024951D02*
X0675628Y0023817D01*
X0676196Y0023250D01*
X0677897Y0023250D01*
X0677897Y0022683D02*
X0677897Y0025519D01*
X0676196Y0025519D01*
X0675628Y0024951D01*
X0676763Y0022116D02*
X0677330Y0022116D01*
X0677897Y0022683D01*
X0677765Y0019519D02*
X0678332Y0018951D01*
X0678899Y0019519D01*
X0679466Y0019519D01*
X0680033Y0018951D01*
X0680033Y0017817D01*
X0679466Y0017250D01*
X0678332Y0018384D02*
X0678332Y0018951D01*
X0677765Y0019519D02*
X0677198Y0019519D01*
X0676630Y0018951D01*
X0676630Y0017817D01*
X0677198Y0017250D01*
X0670033Y0017250D02*
X0667765Y0019519D01*
X0667198Y0019519D01*
X0666630Y0018951D01*
X0666630Y0017817D01*
X0667198Y0017250D01*
X0670033Y0017250D02*
X0670033Y0019519D01*
X0682995Y0023250D02*
X0684129Y0023250D01*
X0683562Y0023250D02*
X0683562Y0026653D01*
X0682995Y0026653D02*
X0684129Y0026653D01*
X0685450Y0025519D02*
X0687152Y0025519D01*
X0687719Y0024951D01*
X0687719Y0023250D01*
X0685450Y0023250D02*
X0685450Y0025519D01*
X0688332Y0019519D02*
X0688332Y0017250D01*
X0686630Y0018951D01*
X0690033Y0018951D01*
X0696630Y0019519D02*
X0696630Y0017250D01*
X0698332Y0017250D01*
X0697765Y0018384D01*
X0697765Y0018951D01*
X0698332Y0019519D01*
X0699466Y0019519D01*
X0700033Y0018951D01*
X0700033Y0017817D01*
X0699466Y0017250D01*
X0660709Y0024951D02*
X0658440Y0024951D01*
X0610033Y0024616D02*
X0610033Y0026318D01*
X0609466Y0026885D01*
X0607198Y0026885D01*
X0606630Y0026318D01*
X0606630Y0024616D01*
X0610033Y0024616D01*
D12*
X0658097Y0032878D02*
X0658097Y0042327D01*
X0658097Y0032878D02*
X0678570Y0032878D01*
X0678570Y0041933D01*
X0684833Y0063000D02*
X0684672Y0063388D01*
X0684503Y0063772D01*
X0684324Y0064151D01*
X0684136Y0064527D01*
X0683940Y0064897D01*
X0683734Y0065263D01*
X0683520Y0065624D01*
X0683298Y0065980D01*
X0683068Y0066331D01*
X0682829Y0066676D01*
X0682582Y0067015D01*
X0682327Y0067348D01*
X0682064Y0067675D01*
X0681794Y0067996D01*
X0681516Y0068311D01*
X0681231Y0068619D01*
X0680939Y0068920D01*
X0680639Y0069214D01*
X0680333Y0069501D01*
X0673333Y0073500D02*
X0672923Y0073617D01*
X0672510Y0073725D01*
X0672094Y0073822D01*
X0671676Y0073909D01*
X0671256Y0073986D01*
X0670834Y0074053D01*
X0670411Y0074110D01*
X0669987Y0074156D01*
X0669561Y0074192D01*
X0669135Y0074218D01*
X0668708Y0074233D01*
X0668282Y0074238D01*
X0667855Y0074233D01*
X0667428Y0074217D01*
X0667002Y0074191D01*
X0666576Y0074155D01*
X0666152Y0074108D01*
X0665729Y0074051D01*
X0665307Y0073984D01*
X0664887Y0073906D01*
X0664470Y0073819D01*
X0664054Y0073721D01*
X0663641Y0073613D01*
X0663230Y0073496D01*
X0662823Y0073368D01*
X0662419Y0073231D01*
X0662018Y0073083D01*
X0661621Y0072926D01*
X0661228Y0072760D01*
X0660839Y0072584D01*
X0660454Y0072399D01*
X0660074Y0072204D01*
X0659699Y0072000D01*
X0659329Y0071788D01*
X0658964Y0071566D01*
X0658605Y0071335D01*
X0658251Y0071096D01*
X0657903Y0070849D01*
X0657561Y0070593D01*
X0657226Y0070328D01*
X0656897Y0070056D01*
X0656575Y0069776D01*
X0656260Y0069488D01*
X0655952Y0069193D01*
X0655651Y0068890D01*
X0655357Y0068580D01*
X0655071Y0068263D01*
X0654793Y0067939D01*
X0654523Y0067608D01*
X0654261Y0067271D01*
X0654007Y0066928D01*
X0653761Y0066579D01*
X0653524Y0066223D01*
X0653296Y0065863D01*
X0653077Y0065496D01*
X0652866Y0065125D01*
X0652665Y0064748D01*
X0652473Y0064367D01*
X0652290Y0063981D01*
X0652116Y0063591D01*
X0651952Y0063197D01*
X0651798Y0062799D01*
X0655333Y0044500D02*
X0655587Y0044255D01*
X0655846Y0044016D01*
X0656110Y0043783D01*
X0656380Y0043556D01*
X0656654Y0043335D01*
X0656933Y0043120D01*
X0657218Y0042912D01*
X0657506Y0042710D01*
X0657800Y0042515D01*
X0658097Y0042326D01*
X0678570Y0041934D02*
X0678932Y0042213D01*
X0679288Y0042500D01*
X0679637Y0042797D01*
X0679979Y0043101D01*
X0680313Y0043414D01*
X0680640Y0043734D01*
X0680959Y0044062D01*
X0681270Y0044398D01*
X0681573Y0044741D01*
X0681867Y0045092D01*
X0682153Y0045449D01*
X0682431Y0045813D01*
X0682699Y0046184D01*
X0682959Y0046561D01*
X0683209Y0046944D01*
X0683450Y0047333D01*
X0683682Y0047727D01*
X0683905Y0048127D01*
X0684117Y0048533D01*
X0684320Y0048943D01*
X0684513Y0049358D01*
X0684696Y0049777D01*
X0684869Y0050201D01*
X0656089Y0080988D02*
X0652940Y0080988D01*
X0656089Y0080988D02*
X0656089Y0083350D01*
X0656089Y0089650D02*
X0656089Y0092012D01*
X0652940Y0092012D01*
X0677664Y0109689D02*
X0677664Y0111500D01*
X0678885Y0112420D01*
X0677664Y0113311D02*
X0677664Y0111500D01*
X0677725Y0111400D02*
X0678885Y0110640D01*
D13*
X0653333Y0111500D03*
X0673333Y0086500D03*
M02*
